<svg width="33" height="32" viewBox="0 0 33 32" fill="none" xmlns="http://www.w3.org/2000/svg">
<path fill-rule="evenodd" clip-rule="evenodd" d="M29.3994 14.1902C28.5998 8.38182 23.1294 3.88728 16.5 3.88728C9.87062 3.88728 4.40023 8.38182 3.60057 14.1902H8.375C10.1699 14.1902 11.625 15.508 11.625 17.1338V23.0212C11.625 24.647 10.1699 25.9649 8.375 25.9649H3.5C1.70507 25.9649 0.25 24.647 0.25 23.0212V15.662C0.25 7.53325 7.52537 0.943604 16.5 0.943604C25.4746 0.943604 32.75 7.53325 32.75 15.662V25.9649C32.75 29.2163 29.8398 31.8522 26.25 31.8522H18.125C17.2275 31.8522 16.5 31.1933 16.5 30.3804C16.5 29.5675 17.2275 28.9085 18.125 28.9085H26.25C28.045 28.9085 29.5 27.5907 29.5 25.9649H24.625C22.83 25.9649 21.375 24.647 21.375 23.0212V17.1338C21.375 15.508 22.83 14.1902 24.625 14.1902H29.3994ZM24.625 17.1338H29.5V23.0212H24.625V17.1338ZM3.5 17.1338V23.0212H8.375V17.1338H3.5Z" fill="#D81E06"/>
</svg>
