<svg width="39" height="39" viewBox="0 0 39 39" fill="none" xmlns="http://www.w3.org/2000/svg">
<path d="M34.125 7.3125H4.875C4.22853 7.3125 3.60855 7.56931 3.15143 8.02643C2.69431 8.48355 2.4375 9.10353 2.4375 9.75V29.25C2.4375 29.8965 2.69431 30.5165 3.15143 30.9736C3.60855 31.4307 4.22853 31.6875 4.875 31.6875H34.125C34.7715 31.6875 35.3915 31.4307 35.8486 30.9736C36.3057 30.5165 36.5625 29.8965 36.5625 29.25V9.75C36.5625 9.10353 36.3057 8.48355 35.8486 8.02643C35.3915 7.56931 34.7715 7.3125 34.125 7.3125ZM34.125 9.75V13.4062H4.875V9.75H34.125ZM34.125 29.25H4.875V15.8438H34.125V29.25ZM31.6875 25.5938C31.6875 25.917 31.5591 26.227 31.3305 26.4555C31.102 26.6841 30.792 26.8125 30.4688 26.8125H25.5938C25.2705 26.8125 24.9605 26.6841 24.732 26.4555C24.5034 26.227 24.375 25.917 24.375 25.5938C24.375 25.2705 24.5034 24.9605 24.732 24.732C24.9605 24.5034 25.2705 24.375 25.5938 24.375H30.4688C30.792 24.375 31.102 24.5034 31.3305 24.732C31.5591 24.9605 31.6875 25.2705 31.6875 25.5938ZM21.9375 25.5938C21.9375 25.917 21.8091 26.227 21.5805 26.4555C21.352 26.6841 21.042 26.8125 20.7188 26.8125H18.2812C17.958 26.8125 17.648 26.6841 17.4195 26.4555C17.1909 26.227 17.0625 25.917 17.0625 25.5938C17.0625 25.2705 17.1909 24.9605 17.4195 24.732C17.648 24.5034 17.958 24.375 18.2812 24.375H20.7188C21.042 24.375 21.352 24.5034 21.5805 24.732C21.8091 24.9605 21.9375 25.2705 21.9375 25.5938Z" fill="#D81E06"/>
</svg>
