<svg width="39" height="41" viewBox="0 0 39 41" fill="none" xmlns="http://www.w3.org/2000/svg">
<path d="M29.25 18.2492C29.25 18.6226 29.1428 18.9876 28.9419 19.2981C28.741 19.6085 28.4555 19.8505 28.1215 19.9934C27.7874 20.1363 27.4198 20.1737 27.0652 20.1008C26.7106 20.028 26.3849 19.8482 26.1292 19.5841C25.8735 19.3201 25.6994 18.9837 25.6289 18.6175C25.5583 18.2513 25.5945 17.8717 25.7329 17.5268C25.8713 17.1818 26.1056 16.887 26.4062 16.6795C26.7069 16.4721 27.0603 16.3614 27.4219 16.3614C27.9067 16.3614 28.3717 16.5603 28.7146 16.9143C29.0574 17.2683 29.25 17.7485 29.25 18.2492ZM23.1562 10.0685H17.0625C16.7393 10.0685 16.4293 10.2011 16.2007 10.4371C15.9722 10.6731 15.8438 10.9933 15.8438 11.3271C15.8438 11.6609 15.9722 11.981 16.2007 12.217C16.4293 12.453 16.7393 12.5856 17.0625 12.5856H23.1562C23.4795 12.5856 23.7895 12.453 24.018 12.217C24.2466 11.981 24.375 11.6609 24.375 11.3271C24.375 10.9933 24.2466 10.6731 24.018 10.4371C23.7895 10.2011 23.4795 10.0685 23.1562 10.0685ZM37.7812 17.6199V22.6542C37.7812 23.6556 37.396 24.616 36.7104 25.3241C36.0247 26.0322 35.0947 26.43 34.125 26.43H33.7655L31.296 33.5692C31.1269 34.0582 30.8155 34.4813 30.4045 34.7804C29.9935 35.0795 29.503 35.24 29.0002 35.24H27.0623C26.5595 35.24 26.069 35.0795 25.658 34.7804C25.247 34.4813 24.9356 34.0582 24.7665 33.5692L24.474 32.7228H15.7447L15.4522 33.5692C15.2832 34.0582 14.9718 34.4813 14.5608 34.7804C14.1498 35.0795 13.6592 35.24 13.1564 35.24H11.2186C10.7158 35.24 10.2252 35.0795 9.81424 34.7804C9.40323 34.4813 9.09185 34.0582 8.92277 33.5692L7.00781 28.0378C5.18606 25.9086 4.04535 23.2504 3.74156 20.4266C3.34825 20.6399 3.01887 20.9602 2.78903 21.3528C2.55919 21.7454 2.43764 22.1954 2.4375 22.6542C2.4375 22.988 2.3091 23.3082 2.08054 23.5442C1.85198 23.7802 1.54198 23.9128 1.21875 23.9128C0.895517 23.9128 0.585524 23.7802 0.356964 23.5442C0.128404 23.3082 0 22.988 0 22.6542C0.00186222 21.5318 0.366878 20.4423 1.03706 19.5587C1.70723 18.675 2.64413 18.048 3.69891 17.7773C3.97117 14.3088 5.4966 11.073 7.97227 8.71225C10.4479 6.35152 13.6928 5.0386 17.0625 5.03418H32.9062C33.2295 5.03418 33.5395 5.16678 33.768 5.40281C33.9966 5.63884 34.125 5.95896 34.125 6.29276C34.125 6.62655 33.9966 6.94667 33.768 7.1827C33.5395 7.41873 33.2295 7.55133 32.9062 7.55133H29.6476C31.6702 9.01678 33.2609 11.0313 34.2438 13.3722C34.3093 13.5296 34.3733 13.6869 34.4343 13.8442C35.3494 13.9244 36.2018 14.3574 36.8219 15.0569C37.4421 15.7565 37.7845 16.6715 37.7812 17.6199ZM35.3438 17.6199C35.3438 17.2861 35.2153 16.966 34.9868 16.73C34.7582 16.494 34.4482 16.3614 34.125 16.3614H33.5674C33.3079 16.3616 33.055 16.2763 32.8456 16.1179C32.6363 15.9594 32.4814 15.7361 32.4035 15.4804C31.7053 13.1793 30.3132 11.1688 28.4304 9.74243C26.5476 8.31603 24.2726 7.54832 21.9375 7.55133H17.0625C14.9338 7.55122 12.8511 8.19074 11.0683 9.39191C9.28555 10.5931 7.87974 12.304 7.02233 14.316C6.16491 16.328 5.89295 18.5542 6.2396 20.7231C6.58625 22.892 7.53653 24.9099 8.97457 26.5306C9.08454 26.6541 9.16948 26.7991 9.22441 26.957L11.2186 32.7228H13.1564L13.7384 31.0411C13.8229 30.7967 13.9784 30.5853 14.1838 30.4357C14.3891 30.2862 14.6342 30.2058 14.8855 30.2057H25.3332C25.5845 30.2058 25.8296 30.2862 26.035 30.4357C26.2403 30.5853 26.3959 30.7967 26.4804 31.0411L27.0623 32.7228H29.0002L31.7591 24.7482C31.8436 24.5038 31.9992 24.2924 32.2045 24.1428C32.4099 23.9933 32.655 23.9129 32.9062 23.9128H34.125C34.4482 23.9128 34.7582 23.7802 34.9868 23.5442C35.2153 23.3082 35.3438 22.988 35.3438 22.6542V17.6199Z" fill="#D81E06"/>
</svg>
