<svg width="38" height="38" viewBox="0 0 38 38" fill="none" xmlns="http://www.w3.org/2000/svg">
<g clip-path="url(#clip0_1_52)">
<mask id="mask0_1_52" style="mask-type:luminance" maskUnits="userSpaceOnUse" x="0" y="0" width="38" height="38">
<path d="M38 0H0V38H38V0Z" fill="white"/>
</mask>
<g mask="url(#mask0_1_52)">
<path fill-rule="evenodd" clip-rule="evenodd" d="M11.0833 16.625C14.3625 16.625 17.0208 13.9667 17.0208 10.6875C17.0208 7.40831 14.3625 4.75 11.0833 4.75C7.80414 4.75 5.14583 7.40831 5.14583 10.6875C5.14583 13.9667 7.80414 16.625 11.0833 16.625ZM11.0833 13.4583C12.6136 13.4583 13.8542 12.2178 13.8542 10.6875C13.8542 9.15721 12.6136 7.91667 11.0833 7.91667C9.55304 7.91667 8.3125 9.15721 8.3125 10.6875C8.3125 12.2178 9.55304 13.4583 11.0833 13.4583Z" fill="#D81E06"/>
<path fill-rule="evenodd" clip-rule="evenodd" d="M32.8542 10.6875C32.8542 13.9667 30.1959 16.625 26.9167 16.625C23.6374 16.625 20.9792 13.9667 20.9792 10.6875C20.9792 7.40831 23.6374 4.75 26.9167 4.75C30.1959 4.75 32.8542 7.40831 32.8542 10.6875ZM29.6875 10.6875C29.6875 12.2178 28.447 13.4583 26.9167 13.4583C25.3864 13.4583 24.1458 12.2178 24.1458 10.6875C24.1458 9.15721 25.3864 7.91667 26.9167 7.91667C28.447 7.91667 29.6875 9.15721 29.6875 10.6875Z" fill="#D81E06"/>
<path fill-rule="evenodd" clip-rule="evenodd" d="M24.4763 22.4458C25.2592 22.2633 26.0761 22.1667 26.9167 22.1667C30.0545 22.1667 32.8738 23.5152 34.8333 25.6742V28.5H25.3333C25.3333 29.6536 25.0249 30.7352 24.4861 31.6667H34.8333C36.5823 31.6667 38 30.249 38 28.5V25.5974C38 24.9112 37.7861 24.2358 37.3336 23.7201C34.7944 20.8265 31.0688 19 26.9167 19C25.2171 19 23.589 19.3061 22.0843 19.8661C22.7259 20.4098 23.3263 21.0001 23.8803 21.6313C24.1083 21.8912 24.3062 22.1641 24.4763 22.4458Z" fill="#D81E06"/>
<path fill-rule="evenodd" clip-rule="evenodd" d="M19 31.6667C20.7489 31.6667 22.1667 30.249 22.1667 28.5V25.5974C22.1667 24.9112 21.9528 24.2358 21.5002 23.7201C20.7611 22.8779 19.9215 22.126 19 21.4833C16.7559 19.918 14.0268 19 11.0833 19C6.93117 19 3.20563 20.8265 0.666438 23.7201C0.213902 24.2358 0 24.9112 0 25.5974V28.5C0 30.249 1.41777 31.6667 3.16667 31.6667H19ZM11.0833 22.1667C14.2212 22.1667 17.0405 23.5152 19 25.6742V28.5H3.16667V25.6742C5.12617 23.5152 7.94544 22.1667 11.0833 22.1667ZM3.16698 25.5894C3.16697 25.5895 3.16703 25.5889 3.16698 25.5894V25.5894Z" fill="#D81E06"/>
</g>
</g>
<defs>
<clipPath id="clip0_1_52">
<rect width="38" height="38" fill="white"/>
</clipPath>
</defs>
</svg>
