<svg width="51" height="52" viewBox="0 0 51 52" fill="none" xmlns="http://www.w3.org/2000/svg">
<path d="M47.8125 21.125H45.6609L40.1266 8.42969C39.8762 7.8553 39.4677 7.3673 38.9508 7.0248C38.4338 6.6823 37.8306 6.50001 37.2141 6.5H13.7859C13.1694 6.50001 12.5662 6.6823 12.0492 7.0248C11.5323 7.3673 11.1238 7.8553 10.8734 8.42969L5.33906 21.125H3.1875C2.76481 21.125 2.35943 21.2962 2.06055 21.601C1.76166 21.9057 1.59375 22.319 1.59375 22.75C1.59375 23.181 1.76166 23.5943 2.06055 23.899C2.35943 24.2038 2.76481 24.375 3.1875 24.375H4.78125V40.625C4.78125 41.487 5.11707 42.3136 5.71485 42.9231C6.31262 43.5326 7.12337 43.875 7.96875 43.875H12.75C13.5954 43.875 14.4061 43.5326 15.0039 42.9231C15.6017 42.3136 15.9375 41.487 15.9375 40.625V37.375H35.0625V40.625C35.0625 41.487 35.3983 42.3136 35.9961 42.9231C36.5939 43.5326 37.4046 43.875 38.25 43.875H43.0312C43.8766 43.875 44.6874 43.5326 45.2852 42.9231C45.8829 42.3136 46.2188 41.487 46.2188 40.625V24.375H47.8125C48.2352 24.375 48.6406 24.2038 48.9395 23.899C49.2383 23.5943 49.4062 23.181 49.4062 22.75C49.4062 22.319 49.2383 21.9057 48.9395 21.601C48.6406 21.2962 48.2352 21.125 47.8125 21.125ZM13.7859 9.75H37.2141L42.1726 21.125H8.82738L13.7859 9.75ZM12.75 40.625H7.96875V37.375H12.75V40.625ZM38.25 40.625V37.375H43.0312V40.625H38.25ZM43.0312 34.125H7.96875V24.375H43.0312V34.125ZM11.1562 29.25C11.1562 28.819 11.3242 28.4057 11.623 28.101C11.9219 27.7962 12.3273 27.625 12.75 27.625H15.9375C16.3602 27.625 16.7656 27.7962 17.0645 28.101C17.3633 28.4057 17.5312 28.819 17.5312 29.25C17.5312 29.681 17.3633 30.0943 17.0645 30.399C16.7656 30.7038 16.3602 30.875 15.9375 30.875H12.75C12.3273 30.875 11.9219 30.7038 11.623 30.399C11.3242 30.0943 11.1562 29.681 11.1562 29.25ZM33.4688 29.25C33.4688 28.819 33.6367 28.4057 33.9355 28.101C34.2344 27.7962 34.6398 27.625 35.0625 27.625H38.25C38.6727 27.625 39.0781 27.7962 39.377 28.101C39.6758 28.4057 39.8438 28.819 39.8438 29.25C39.8438 29.681 39.6758 30.0943 39.377 30.399C39.0781 30.7038 38.6727 30.875 38.25 30.875H35.0625C34.6398 30.875 34.2344 30.7038 33.9355 30.399C33.6367 30.0943 33.4688 29.681 33.4688 29.25Z" fill="#D81E06"/>
</svg>
