<svg width="52" height="51" viewBox="0 0 52 51" fill="none" xmlns="http://www.w3.org/2000/svg">
<g clip-path="url(#clip0_5_18)">
<path d="M51.8842 23.3086L49.0405 16.3359C48.7991 15.7457 48.3825 15.2402 47.8446 14.8849C47.3068 14.5297 46.6725 14.3412 46.0241 14.3438H39V12.75C39 12.3273 38.8288 11.9219 38.524 11.623C38.2193 11.3242 37.806 11.1562 37.375 11.1562C36.944 11.1562 36.5307 11.3242 36.226 11.623C35.9212 11.9219 35.75 12.3273 35.75 12.75V32.7336C35.0028 33.1572 34.3487 33.7221 33.8257 34.3954C33.3027 35.0688 32.9211 35.8372 32.7031 36.6562H22.5469C22.1889 35.285 21.3757 34.0695 20.2356 33.2016C19.0955 32.3336 17.6933 31.8625 16.25 31.8625C14.8067 31.8625 13.4045 32.3336 12.2644 33.2016C11.1243 34.0695 10.3111 35.285 9.95312 36.6562H6.5V27.0938C6.5 26.6711 6.3288 26.2657 6.02405 25.9668C5.7193 25.6679 5.30598 25.5 4.875 25.5C4.44402 25.5 4.0307 25.6679 3.72595 25.9668C3.4212 26.2657 3.25 26.6711 3.25 27.0938V36.6562C3.25 37.5016 3.59241 38.3124 4.2019 38.9102C4.8114 39.5079 5.63805 39.8438 6.5 39.8438H9.95312C10.3111 41.215 11.1243 42.4305 12.2644 43.2984C13.4045 44.1664 14.8067 44.6375 16.25 44.6375C17.6933 44.6375 19.0955 44.1664 20.2356 43.2984C21.3757 42.4305 22.1889 41.215 22.5469 39.8438H32.7031C33.0611 41.215 33.8743 42.4305 35.0144 43.2984C36.1545 44.1664 37.5567 44.6375 39 44.6375C40.4433 44.6375 41.8455 44.1664 42.9856 43.2984C44.1257 42.4305 44.9389 41.215 45.2969 39.8438H48.75C49.612 39.8438 50.4386 39.5079 51.0481 38.9102C51.6576 38.3124 52 37.5016 52 36.6562V23.9062C52.0013 23.7016 51.962 23.4986 51.8842 23.3086ZM46.0241 17.5312L47.9741 22.3125H39V17.5312H46.0241ZM16.25 41.4375C15.6072 41.4375 14.9789 41.2506 14.4444 40.9003C13.9099 40.5501 13.4934 40.0522 13.2474 39.4698C13.0014 38.8874 12.937 38.2465 13.0624 37.6281C13.1878 37.0098 13.4974 36.4419 13.9519 35.9961C14.4064 35.5503 14.9855 35.2467 15.616 35.1237C16.2464 35.0008 16.8999 35.0639 17.4937 35.3051C18.0876 35.5464 18.5952 35.9549 18.9523 36.4791C19.3094 37.0033 19.5 37.6196 19.5 38.25C19.5 39.0954 19.1576 39.9061 18.5481 40.5039C17.9386 41.1017 17.112 41.4375 16.25 41.4375ZM39 41.4375C38.3572 41.4375 37.7289 41.2506 37.1944 40.9003C36.6599 40.5501 36.2434 40.0522 35.9974 39.4698C35.7514 38.8874 35.687 38.2465 35.8124 37.6281C35.9379 37.0098 36.2474 36.4419 36.7019 35.9961C37.1564 35.5503 37.7355 35.2467 38.366 35.1237C38.9964 35.0008 39.6499 35.0639 40.2437 35.3051C40.8376 35.5464 41.3452 35.9549 41.7023 36.4791C42.0594 37.0033 42.25 37.6196 42.25 38.25C42.25 39.0954 41.9076 39.9061 41.2981 40.5039C40.6886 41.1017 39.862 41.4375 39 41.4375ZM45.2969 36.6562C44.9346 35.2883 44.1199 34.0768 42.9804 33.2116C41.841 32.3464 40.4411 31.8763 39 31.875V25.5H48.75V36.6562H45.2969ZM4.875 19.125C4.44402 19.125 4.0307 19.2929 3.72595 19.5918C3.4212 19.8907 3.25 20.2961 3.25 20.7188C3.25 21.1414 3.4212 21.5468 3.72595 21.8457C4.0307 22.1446 4.44402 22.3125 4.875 22.3125H30.875C31.306 22.3125 31.7193 22.1446 32.024 21.8457C32.3288 21.5468 32.5 21.1414 32.5 20.7188C32.5 20.2961 32.3288 19.8907 32.024 19.5918C31.7193 19.2929 31.306 19.125 30.875 19.125H27.625V14.3438H30.875C31.306 14.3438 31.7193 14.1758 32.024 13.877C32.3288 13.5781 32.5 13.1727 32.5 12.75C32.5 12.3273 32.3288 11.9219 32.024 11.623C31.7193 11.3242 31.306 11.1562 30.875 11.1562H4.875C4.44402 11.1562 4.0307 11.3242 3.72595 11.623C3.4212 11.9219 3.25 12.3273 3.25 12.75C3.25 13.1727 3.4212 13.5781 3.72595 13.877C4.0307 14.1758 4.44402 14.3438 4.875 14.3438H8.125V19.125H4.875ZM24.375 19.125H19.5V14.3438H24.375V19.125ZM11.375 14.3438H16.25V19.125H11.375V14.3438Z" fill="#D81E06"/>
</g>
<defs>
<clipPath id="clip0_5_18">
<rect width="52" height="51" fill="white"/>
</clipPath>
</defs>
</svg>
