<svg width="52" height="51" viewBox="0 0 52 51" fill="none" xmlns="http://www.w3.org/2000/svg">
<path d="M46.0606 13.7461C45.962 13.5072 45.8058 13.2952 45.6054 13.1285C45.405 12.9618 45.1663 12.8452 44.9099 12.7888C44.6534 12.7323 44.3868 12.7378 44.133 12.8046C43.8792 12.8714 43.6457 12.9976 43.4525 13.1724L35.2665 20.5813L31.7667 19.8442L31.0151 16.4117L38.5693 8.38315C38.7475 8.19368 38.8762 7.96465 38.9443 7.71569C39.0125 7.46674 39.018 7.20529 38.9605 6.95378C38.903 6.70227 38.7841 6.46819 38.6141 6.27162C38.4441 6.07505 38.228 5.92186 37.9843 5.82518C35.7641 4.94431 33.3572 4.61171 30.9751 4.85662C28.5931 5.10153 26.3089 5.91645 24.3231 7.22978C22.3374 8.54311 20.7109 10.3146 19.5866 12.3887C18.4622 14.4628 17.8745 16.776 17.875 19.125C17.8723 21.1086 18.2872 23.0714 19.0937 24.8904L6.86356 35.2617C6.83309 35.2857 6.80465 35.3135 6.77622 35.3394C5.55709 36.5351 4.87219 38.1568 4.87219 39.8478C4.87219 40.685 5.04034 41.5141 5.36703 42.2877C5.69372 43.0612 6.17257 43.764 6.77622 44.3561C7.37987 44.9481 8.0965 45.4178 8.88521 45.7382C9.67391 46.0586 10.5192 46.2235 11.3729 46.2235C13.097 46.2235 14.7505 45.5518 15.9697 44.3561C15.9961 44.3302 16.0245 44.3003 16.0489 44.2724L26.6215 32.2735C28.8487 33.2323 31.2844 33.6312 33.7084 33.4341C36.1323 33.237 38.4678 32.4501 40.5036 31.1447C42.5393 29.8392 44.2109 28.0564 45.367 25.9577C46.5232 23.8589 47.1274 21.5105 47.125 19.125C47.1281 17.2814 46.7667 15.4547 46.0606 13.7461ZM32.5 30.2813C30.5765 30.2787 28.685 29.799 27.0014 28.8867C26.6752 28.71 26.297 28.6486 25.9302 28.7128C25.5633 28.777 25.2301 28.9629 24.9864 29.2394L13.6317 42.1368C13.0172 42.7093 12.199 43.0238 11.3516 43.0132C10.5041 43.0025 9.69438 42.6676 9.09508 42.0798C8.49578 41.492 8.15429 40.6979 8.14344 39.8667C8.13259 39.0355 8.45323 38.2331 9.037 37.6305L22.1772 26.4961C22.4595 26.257 22.6494 25.9298 22.7148 25.5696C22.7803 25.2093 22.7174 24.838 22.5367 24.5179C21.5008 22.6804 21.0147 20.5934 21.1342 18.4971C21.2537 16.4007 21.9739 14.3799 23.2122 12.6671C24.4504 10.9542 26.1564 9.6189 28.1339 8.81456C30.1115 8.01022 32.2803 7.76954 34.3911 8.12018L28.0536 14.8558C27.8772 15.0434 27.7494 15.2698 27.6808 15.5159C27.6123 15.762 27.6049 16.0207 27.6595 16.2702L28.8092 21.5157C28.8749 21.8157 29.0276 22.0907 29.2488 22.3077C29.4701 22.5246 29.7505 22.6744 30.0564 22.7389L35.4087 23.8664C35.6631 23.9199 35.9269 23.9128 36.1778 23.8455C36.4288 23.7783 36.6596 23.6529 36.8509 23.4799L43.7186 17.2643C43.9923 18.8641 43.9075 20.5031 43.47 22.0674C43.0325 23.6318 42.2528 25.0839 41.1851 26.3227C40.1174 27.5616 38.7874 28.5574 37.2875 29.241C35.7876 29.9247 34.1539 30.2796 32.5 30.2813Z" fill="#D81E06"/>
</svg>
