<svg width="219" height="39" viewBox="0 0 219 39" fill="none" xmlns="http://www.w3.org/2000/svg">
<path d="M46.2239 14.0321L48.7176 14.8228C48.3353 16.213 47.6981 17.2469 46.8061 17.9247C45.9198 18.5966 44.7932 18.9326 43.4261 18.9326C41.7347 18.9326 40.3445 18.3562 39.2555 17.2035C38.1665 16.045 37.622 14.4636 37.622 12.4594C37.622 10.3394 38.1694 8.69429 39.2642 7.5242C40.359 6.34832 41.7984 5.76038 43.5825 5.76038C45.1407 5.76038 46.4064 6.22088 47.3795 7.14189C47.9588 7.68639 48.3932 8.46838 48.6829 9.48786L46.137 10.0961C45.9864 9.43573 45.6707 8.9144 45.19 8.53209C44.715 8.14979 44.1357 7.95864 43.4522 7.95864C42.508 7.95864 41.7405 8.2975 41.1497 8.97522C40.5646 9.65295 40.2721 10.7506 40.2721 12.2683C40.2721 13.8786 40.5617 15.0255 41.141 15.709C41.7202 16.3925 42.4733 16.7343 43.4001 16.7343C44.0836 16.7343 44.6715 16.5171 45.1639 16.0826C45.6563 15.6482 46.0096 14.9647 46.2239 14.0321Z" fill="#1E40AF"/>
<path d="M50.3511 13.9713C50.3511 13.1603 50.5509 12.3754 50.9506 11.6166C51.3503 10.8578 51.9151 10.2785 52.6449 9.87885C53.3806 9.47917 54.2002 9.27933 55.1039 9.27933C56.4998 9.27933 57.6439 9.73404 58.5359 10.6435C59.428 11.5471 59.874 12.6911 59.874 14.0755C59.874 15.4715 59.4222 16.63 58.5185 17.551C57.6207 18.4663 56.4883 18.9239 55.1212 18.9239C54.2755 18.9239 53.4675 18.7327 52.6971 18.3504C51.9325 17.9681 51.3503 17.4091 50.9506 16.6735C50.5509 15.932 50.3511 15.0313 50.3511 13.9713ZM52.8535 14.1016C52.8535 15.0168 53.0707 15.7177 53.5051 16.2043C53.9396 16.6909 54.4754 16.9341 55.1125 16.9341C55.7497 16.9341 56.2826 16.6909 56.7113 16.2043C57.1457 15.7177 57.3629 15.011 57.3629 14.0842C57.3629 13.1806 57.1457 12.4855 56.7113 11.9989C56.2826 11.5123 55.7497 11.2691 55.1125 11.2691C54.4754 11.2691 53.9396 11.5123 53.5051 11.9989C53.0707 12.4855 52.8535 13.1864 52.8535 14.1016Z" fill="#1E40AF"/>
<path d="M64.1315 18.7153H61.6899V9.48786H63.9577V10.7999C64.3458 10.1801 64.6934 9.77169 65.0004 9.57475C65.3132 9.3778 65.6665 9.27933 66.0604 9.27933C66.6165 9.27933 67.1523 9.43283 67.6678 9.73983L66.9119 11.8686C66.5006 11.6021 66.1183 11.4689 65.765 11.4689C65.4232 11.4689 65.1336 11.5645 64.8961 11.7556C64.6586 11.941 64.4704 12.2799 64.3313 12.7722C64.1981 13.2646 64.1315 14.2956 64.1315 15.8654V18.7153Z" fill="#1E40AF"/>
<path d="M71.0651 18.7153H68.6236V9.48786H70.8914V10.7999C71.2795 10.1801 71.627 9.77169 71.934 9.57475C72.2468 9.3778 72.6001 9.27933 72.994 9.27933C73.5501 9.27933 74.0859 9.43283 74.6015 9.73983L73.8455 11.8686C73.4343 11.6021 73.052 11.4689 72.6986 11.4689C72.3569 11.4689 72.0672 11.5645 71.8297 11.7556C71.5922 11.941 71.404 12.2799 71.265 12.7722C71.1317 13.2646 71.0651 14.2956 71.0651 15.8654V18.7153Z" fill="#1E40AF"/>
<path d="M81.0051 15.7785L83.4379 16.1869C83.1251 17.079 82.6299 17.7596 81.9522 18.2288C81.2802 18.6922 80.4374 18.9239 79.4237 18.9239C77.8192 18.9239 76.6317 18.3996 75.8613 17.3512C75.2531 16.5113 74.949 15.4513 74.949 14.1711C74.949 12.6419 75.3487 11.4457 76.1481 10.5826C76.9474 9.71377 77.9582 9.27933 79.1804 9.27933C80.5533 9.27933 81.6365 9.73404 82.43 10.6435C83.2236 11.5471 83.603 12.9344 83.5683 14.8054H77.4514C77.4688 15.5295 77.6657 16.0942 78.0422 16.4997C78.4187 16.8994 78.8879 17.0992 79.4498 17.0992C79.8321 17.0992 80.1536 16.995 80.4142 16.7864C80.6749 16.5779 80.8719 16.2419 81.0051 15.7785ZM81.1441 13.3109C81.1267 12.6042 80.9443 12.0684 80.5967 11.7035C80.2492 11.3328 79.8263 11.1474 79.3282 11.1474C78.7952 11.1474 78.355 11.3415 78.0075 11.7296C77.6599 12.1177 77.489 12.6448 77.4948 13.3109H81.1441Z" fill="#1E40AF"/>
<path d="M89.7981 9.48786V11.4341H88.1299V15.1529C88.1299 15.906 88.1444 16.3462 88.1733 16.4736C88.2081 16.5953 88.2805 16.6966 88.3905 16.7777C88.5064 16.8588 88.6454 16.8994 88.8076 16.8994C89.0335 16.8994 89.3608 16.8212 89.7894 16.6648L89.998 18.5589C89.4303 18.8022 88.7873 18.9239 88.0691 18.9239C87.6288 18.9239 87.232 18.8515 86.8787 18.7066C86.5254 18.556 86.2647 18.3649 86.0967 18.1332C85.9345 17.8957 85.8216 17.5771 85.7578 17.1774C85.7057 16.8936 85.6796 16.3201 85.6796 15.457V11.4341H84.5588V9.48786H85.6796V7.65453L88.1299 6.22957V9.48786H89.7981Z" fill="#1E40AF"/>
<path d="M90.9277 13.9713C90.9277 13.1603 91.1275 12.3754 91.5272 11.6166C91.9269 10.8578 92.4916 10.2785 93.2215 9.87885C93.9571 9.47917 94.7768 9.27933 95.6804 9.27933C97.0764 9.27933 98.2204 9.73404 99.1125 10.6435C100.005 11.5471 100.451 12.6911 100.451 14.0755C100.451 15.4715 99.9987 16.63 99.0951 17.551C98.1973 18.4663 97.0648 18.9239 95.6978 18.9239C94.8521 18.9239 94.044 18.7327 93.2736 18.3504C92.509 17.9681 91.9269 17.4091 91.5272 16.6735C91.1275 15.932 90.9277 15.0313 90.9277 13.9713ZM93.43 14.1016C93.43 15.0168 93.6473 15.7177 94.0817 16.2043C94.5161 16.6909 95.0519 16.9341 95.6891 16.9341C96.3263 16.9341 96.8592 16.6909 97.2878 16.2043C97.7223 15.7177 97.9395 15.011 97.9395 14.0842C97.9395 13.1806 97.7223 12.4855 97.2878 11.9989C96.8592 11.5123 96.3263 11.2691 95.6891 11.2691C95.0519 11.2691 94.5161 11.5123 94.0817 11.9989C93.6473 12.4855 93.43 13.1864 93.43 14.1016Z" fill="#1E40AF"/>
<path d="M104.708 18.7153H102.267V9.48786H104.534V10.7999C104.922 10.1801 105.27 9.77169 105.577 9.57475C105.89 9.3778 106.243 9.27933 106.637 9.27933C107.193 9.27933 107.729 9.43283 108.244 9.73983L107.488 11.8686C107.077 11.6021 106.695 11.4689 106.342 11.4689C106 11.4689 105.71 11.5645 105.473 11.7556C105.235 11.941 105.047 12.2799 104.908 12.7722C104.775 13.2646 104.708 14.2956 104.708 15.8654V18.7153Z" fill="#1E40AF"/>
<path d="M111.129 12.303L108.913 11.9033C109.163 11.0113 109.591 10.3509 110.199 9.9223C110.808 9.49365 111.711 9.27933 112.91 9.27933C113.999 9.27933 114.81 9.40966 115.343 9.67032C115.876 9.92519 116.25 10.2525 116.464 10.6522C116.684 11.046 116.794 11.773 116.794 12.833L116.768 15.683C116.768 16.4939 116.806 17.0934 116.881 17.4815C116.962 17.8638 117.11 18.2751 117.324 18.7153H114.909C114.845 18.5531 114.767 18.3128 114.674 17.9942C114.634 17.8494 114.605 17.7538 114.587 17.7074C114.17 18.1129 113.724 18.417 113.249 18.6198C112.774 18.8225 112.267 18.9239 111.729 18.9239C110.779 18.9239 110.028 18.6661 109.478 18.1506C108.934 17.635 108.661 16.9834 108.661 16.1956C108.661 15.6743 108.786 15.2109 109.035 14.8054C109.284 14.3941 109.632 14.0813 110.078 13.867C110.53 13.6469 111.178 13.4557 112.024 13.2935C113.165 13.0792 113.956 12.8794 114.396 12.694V12.4507C114.396 11.9815 114.28 11.6485 114.048 11.4515C113.817 11.2488 113.379 11.1474 112.736 11.1474C112.302 11.1474 111.963 11.2343 111.72 11.4081C111.477 11.5761 111.28 11.8744 111.129 12.303ZM114.396 14.2841C114.083 14.3883 113.588 14.5129 112.91 14.6577C112.233 14.8025 111.789 14.9444 111.581 15.0834C111.262 15.3093 111.103 15.5961 111.103 15.9436C111.103 16.2854 111.23 16.5808 111.485 16.8299C111.74 17.079 112.065 17.2035 112.458 17.2035C112.899 17.2035 113.319 17.0587 113.718 16.7691C114.014 16.5489 114.208 16.2796 114.3 15.961C114.364 15.7525 114.396 15.3557 114.396 14.7706V14.2841Z" fill="#1E40AF"/>
<path d="M132.625 18.7153H130.357V17.3599C129.981 17.887 129.535 18.2809 129.019 18.5416C128.51 18.7964 127.994 18.9239 127.473 18.9239C126.413 18.9239 125.503 18.4981 124.744 17.6466C123.991 16.7893 123.615 15.5961 123.615 14.0668C123.615 12.5029 123.983 11.3154 124.718 10.5044C125.454 9.6877 126.384 9.27933 127.507 9.27933C128.538 9.27933 129.431 9.70798 130.184 10.5653V5.9776H132.625V18.7153ZM126.109 13.9018C126.109 14.8865 126.245 15.599 126.517 16.0392C126.911 16.6764 127.461 16.995 128.168 16.995C128.73 16.995 129.208 16.7575 129.601 16.2825C129.995 15.8017 130.192 15.0863 130.192 14.1364C130.192 13.0763 130.001 12.3146 129.619 11.8512C129.236 11.382 128.747 11.1474 128.15 11.1474C127.571 11.1474 127.085 11.3791 126.691 11.8425C126.303 12.3001 126.109 12.9865 126.109 13.9018Z" fill="#1E40AF"/>
<path d="M140.384 15.7785L142.817 16.1869C142.504 17.079 142.009 17.7596 141.331 18.2288C140.659 18.6922 139.816 18.9239 138.803 18.9239C137.198 18.9239 136.011 18.3996 135.24 17.3512C134.632 16.5113 134.328 15.4513 134.328 14.1711C134.328 12.6419 134.728 11.4457 135.527 10.5826C136.327 9.71377 137.337 9.27933 138.56 9.27933C139.932 9.27933 141.016 9.73404 141.809 10.6435C142.603 11.5471 142.982 12.9344 142.947 14.8054H136.83C136.848 15.5295 137.045 16.0942 137.421 16.4997C137.798 16.8994 138.267 17.0992 138.829 17.0992C139.211 17.0992 139.533 16.995 139.793 16.7864C140.054 16.5779 140.251 16.2419 140.384 15.7785ZM140.523 13.3109C140.506 12.6042 140.323 12.0684 139.976 11.7035C139.628 11.3328 139.205 11.1474 138.707 11.1474C138.174 11.1474 137.734 11.3415 137.387 11.7296C137.039 12.1177 136.868 12.6448 136.874 13.3109H140.523Z" fill="#1E40AF"/>
<path d="M149.264 14.5708L151.766 14.3275C151.917 15.1674 152.221 15.7843 152.679 16.1782C153.142 16.5721 153.765 16.7691 154.547 16.7691C155.375 16.7691 155.998 16.5953 156.415 16.2477C156.838 15.8944 157.049 15.4831 157.049 15.0139C157.049 14.7127 156.959 14.4578 156.78 14.2493C156.606 14.035 156.299 13.8496 155.859 13.6932C155.558 13.589 154.871 13.4036 153.8 13.1371C152.421 12.7954 151.454 12.3754 150.898 11.8773C150.116 11.1764 149.725 10.322 149.725 9.31408C149.725 8.66532 149.907 8.06 150.272 7.49813C150.643 6.93046 151.173 6.49892 151.862 6.2035C152.557 5.90809 153.394 5.76038 154.373 5.76038C155.972 5.76038 157.174 6.11082 157.979 6.81172C158.79 7.51261 159.216 8.4481 159.256 9.61819L156.684 9.73115C156.574 9.07659 156.337 8.6074 155.972 8.32356C155.613 8.03394 155.071 7.88913 154.347 7.88913C153.6 7.88913 153.015 8.04263 152.592 8.34963C152.32 8.54658 152.184 8.81014 152.184 9.14031C152.184 9.44152 152.311 9.69929 152.566 9.91361C152.89 10.1859 153.678 10.4697 154.929 10.7651C156.18 11.0605 157.104 11.3675 157.701 11.6861C158.303 11.9989 158.772 12.4305 159.108 12.9807C159.45 13.5252 159.621 14.2001 159.621 15.0052C159.621 15.7351 159.418 16.4186 159.013 17.0558C158.607 17.693 158.034 18.1679 157.293 18.4807C156.551 18.7877 155.627 18.9412 154.521 18.9412C152.91 18.9412 151.674 18.5705 150.811 17.8291C149.948 17.0818 149.432 15.9958 149.264 14.5708Z" fill="#1E40AF"/>
<path d="M167.111 15.7785L169.544 16.1869C169.231 17.079 168.736 17.7596 168.058 18.2288C167.386 18.6922 166.543 18.9239 165.529 18.9239C163.925 18.9239 162.737 18.3996 161.967 17.3512C161.359 16.5113 161.055 15.4513 161.055 14.1711C161.055 12.6419 161.454 11.4457 162.254 10.5826C163.053 9.71377 164.064 9.27933 165.286 9.27933C166.659 9.27933 167.742 9.73404 168.536 10.6435C169.329 11.5471 169.709 12.9344 169.674 14.8054H163.557C163.574 15.5295 163.771 16.0942 164.148 16.4997C164.524 16.8994 164.994 17.0992 165.556 17.0992C165.938 17.0992 166.259 16.995 166.52 16.7864C166.781 16.5779 166.978 16.2419 167.111 15.7785ZM167.25 13.3109C167.232 12.6042 167.05 12.0684 166.702 11.7035C166.355 11.3328 165.932 11.1474 165.434 11.1474C164.901 11.1474 164.461 11.3415 164.113 11.7296C163.766 12.1177 163.595 12.6448 163.601 13.3109H167.25Z" fill="#1E40AF"/>
<path d="M171.447 19.3236L174.236 19.6624C174.282 19.9868 174.389 20.2098 174.557 20.3314C174.789 20.5052 175.154 20.5921 175.652 20.5921C176.289 20.5921 176.767 20.4965 177.086 20.3054C177.3 20.1779 177.462 19.9723 177.572 19.6885C177.647 19.4857 177.685 19.1121 177.685 18.5676V17.2209C176.955 18.2172 176.034 18.7153 174.922 18.7153C173.682 18.7153 172.701 18.1911 171.977 17.1427C171.409 16.3143 171.125 15.2833 171.125 14.0495C171.125 12.5029 171.496 11.3212 172.237 10.5044C172.984 9.6877 173.911 9.27933 175.018 9.27933C176.159 9.27933 177.1 9.78038 177.841 10.7825V9.48786H180.127V17.7683C180.127 18.8573 180.037 19.6711 179.857 20.2098C179.678 20.7485 179.426 21.1714 179.101 21.4784C178.777 21.7854 178.343 22.0258 177.798 22.1995C177.259 22.3733 176.576 22.4602 175.747 22.4602C174.183 22.4602 173.074 22.1908 172.42 21.6521C171.765 21.1192 171.438 20.4415 171.438 19.619C171.438 19.5379 171.441 19.4394 171.447 19.3236ZM173.627 13.9104C173.627 14.8894 173.816 15.6077 174.192 16.0653C174.574 16.5171 175.044 16.743 175.6 16.743C176.196 16.743 176.7 16.5113 177.112 16.0479C177.523 15.5787 177.729 14.8865 177.729 13.9713C177.729 13.0155 177.532 12.3059 177.138 11.8425C176.744 11.3791 176.246 11.1474 175.643 11.1474C175.058 11.1474 174.574 11.3762 174.192 11.8338C173.816 12.2856 173.627 12.9779 173.627 13.9104Z" fill="#1E40AF"/>
<path d="M188.624 18.7153V17.3338C188.288 17.8262 187.845 18.2143 187.295 18.4981C186.75 18.782 186.174 18.9239 185.566 18.9239C184.946 18.9239 184.39 18.7877 183.898 18.5155C183.405 18.2432 183.049 17.8609 182.829 17.3686C182.609 16.8762 182.499 16.1956 182.499 15.3267V9.48786H184.94V13.728C184.94 15.0255 184.984 15.822 185.071 16.1174C185.163 16.407 185.328 16.6387 185.566 16.8125C185.803 16.9805 186.104 17.0645 186.469 17.0645C186.886 17.0645 187.26 16.9515 187.59 16.7256C187.92 16.4939 188.146 16.2101 188.268 15.8741C188.39 15.5324 188.45 14.7011 188.45 13.3804V9.48786H190.892V18.7153H188.624Z" fill="#1E40AF"/>
<path d="M195.766 18.7153H193.325V9.48786H195.593V10.7999C195.981 10.1801 196.328 9.77169 196.635 9.57475C196.948 9.3778 197.301 9.27933 197.695 9.27933C198.251 9.27933 198.787 9.43283 199.303 9.73983L198.547 11.8686C198.136 11.6021 197.753 11.4689 197.4 11.4689C197.058 11.4689 196.769 11.5645 196.531 11.7556C196.294 11.941 196.105 12.2799 195.966 12.7722C195.833 13.2646 195.766 14.2956 195.766 15.8654V18.7153Z" fill="#1E40AF"/>
<path d="M199.798 13.9713C199.798 13.1603 199.998 12.3754 200.398 11.6166C200.797 10.8578 201.362 10.2785 202.092 9.87885C202.827 9.47917 203.647 9.27933 204.551 9.27933C205.947 9.27933 207.091 9.73404 207.983 10.6435C208.875 11.5471 209.321 12.6911 209.321 14.0755C209.321 15.4715 208.869 16.63 207.965 17.551C207.068 18.4663 205.935 18.9239 204.568 18.9239C203.722 18.9239 202.914 18.7327 202.144 18.3504C201.379 17.9681 200.797 17.4091 200.398 16.6735C199.998 15.932 199.798 15.0313 199.798 13.9713ZM202.3 14.1016C202.3 15.0168 202.518 15.7177 202.952 16.2043C203.386 16.6909 203.922 16.9341 204.559 16.9341C205.197 16.9341 205.73 16.6909 206.158 16.2043C206.593 15.7177 206.81 15.011 206.81 14.0842C206.81 13.1806 206.593 12.4855 206.158 11.9989C205.73 11.5123 205.197 11.2691 204.559 11.2691C203.922 11.2691 203.386 11.5123 202.952 11.9989C202.518 12.4855 202.3 13.1864 202.3 14.1016Z" fill="#1E40AF"/>
<path d="M210.381 16.0826L212.831 15.709C212.935 16.184 213.147 16.546 213.465 16.7951C213.784 17.0384 214.23 17.16 214.803 17.16C215.435 17.16 215.91 17.0442 216.228 16.8125C216.443 16.6503 216.55 16.4331 216.55 16.1608C216.55 15.9755 216.492 15.822 216.376 15.7003C216.255 15.5845 215.982 15.4773 215.559 15.3788C213.59 14.9444 212.342 14.5476 211.815 14.1885C211.085 13.6903 210.72 12.9981 210.72 12.1119C210.72 11.3125 211.035 10.6406 211.667 10.0961C212.298 9.55158 213.277 9.27933 214.604 9.27933C215.866 9.27933 216.805 9.48496 217.419 9.89623C218.033 10.3075 218.456 10.9157 218.687 11.7209L216.385 12.1466C216.286 11.7875 216.098 11.5123 215.82 11.3212C215.548 11.13 215.157 11.0345 214.647 11.0345C214.004 11.0345 213.544 11.1242 213.266 11.3038C213.08 11.4312 212.988 11.5963 212.988 11.7991C212.988 11.9728 213.069 12.1206 213.231 12.2422C213.451 12.4044 214.21 12.6332 215.507 12.9286C216.811 13.224 217.72 13.5861 218.236 14.0147C218.745 14.4492 219 15.0545 219 15.8307C219 16.6764 218.647 17.4033 217.94 18.0115C217.233 18.6198 216.188 18.9239 214.803 18.9239C213.547 18.9239 212.55 18.669 211.815 18.1593C211.085 17.6495 210.607 16.9573 210.381 16.0826Z" fill="#1E40AF"/>
<path d="M37.4425 36.5099V30.1411H39.8449C40.2678 30.1411 40.5907 30.1613 40.8137 30.2019C41.1265 30.254 41.3886 30.354 41.6001 30.5017C41.8115 30.6465 41.9809 30.8507 42.1083 31.1142C42.2387 31.3778 42.3038 31.6674 42.3038 31.9831C42.3038 32.5247 42.1315 32.9838 41.7869 33.3603C41.4422 33.7339 40.8195 33.9207 39.9188 33.9207H38.2853V36.5099H37.4425ZM38.2853 33.1691H39.9318C40.4763 33.1691 40.863 33.0677 41.0918 32.865C41.3206 32.6623 41.435 32.377 41.435 32.0092C41.435 31.7427 41.3669 31.5154 41.2308 31.3271C41.0976 31.1359 40.9209 31.01 40.7008 30.9491C40.5588 30.9115 40.2967 30.8927 39.9144 30.8927H38.2853V33.1691Z" fill="#64748B"/>
<path d="M43.2683 36.5099V31.8962H43.9721V32.5957C44.1517 32.2684 44.3167 32.0526 44.4673 31.9483C44.6208 31.8441 44.7888 31.7919 44.9713 31.7919C45.2349 31.7919 45.5028 31.8759 45.775 32.0439L45.5057 32.7694C45.3145 32.6565 45.1233 32.6 44.9322 32.6C44.7613 32.6 44.6078 32.6521 44.4717 32.7564C44.3356 32.8578 44.2385 32.9997 44.1806 33.1821C44.0937 33.4602 44.0503 33.7643 44.0503 34.0945V36.5099H43.2683Z" fill="#64748B"/>
<path d="M45.9488 34.2031C45.9488 33.3487 46.1863 32.7158 46.6613 32.3046C47.0581 31.9628 47.5417 31.7919 48.1123 31.7919C48.7466 31.7919 49.265 32.0005 49.6676 32.4175C50.0702 32.8317 50.2714 33.4052 50.2714 34.1379C50.2714 34.7316 50.1817 35.1994 50.0021 35.5411C49.8254 35.88 49.5662 36.1436 49.2245 36.3318C48.8856 36.5201 48.5149 36.6142 48.1123 36.6142C47.4664 36.6142 46.9436 36.4071 46.544 35.993C46.1472 35.5788 45.9488 34.9822 45.9488 34.2031ZM46.7525 34.2031C46.7525 34.7939 46.8814 35.237 47.1391 35.5325C47.3969 35.825 47.7213 35.9712 48.1123 35.9712C48.5004 35.9712 48.8233 35.8235 49.0811 35.5281C49.3389 35.2327 49.4677 34.7823 49.4677 34.177C49.4677 33.6064 49.3374 33.1749 49.0767 32.8824C48.819 32.587 48.4975 32.4393 48.1123 32.4393C47.7213 32.4393 47.3969 32.5855 47.1391 32.878C46.8814 33.1706 46.7525 33.6122 46.7525 34.2031Z" fill="#64748B"/>
<path d="M52.8998 35.8105L53.0128 36.5013C52.7926 36.5476 52.5957 36.5708 52.4219 36.5708C52.1381 36.5708 51.918 36.5259 51.7616 36.4361C51.6052 36.3463 51.4951 36.229 51.4314 36.0842C51.3677 35.9365 51.3358 35.628 51.3358 35.1588V32.5044H50.7624V31.8962H51.3358V30.7536L52.1135 30.2844V31.8962H52.8998V32.5044H52.1135V35.2023C52.1135 35.4253 52.1265 35.5687 52.1526 35.6324C52.1815 35.6961 52.2264 35.7468 52.2872 35.7844C52.351 35.8221 52.4407 35.8409 52.5566 35.8409C52.6435 35.8409 52.7579 35.8308 52.8998 35.8105Z" fill="#64748B"/>
<path d="M56.8271 35.0242L57.6352 35.1241C57.5077 35.5962 57.2717 35.9626 56.927 36.2232C56.5824 36.4839 56.1422 36.6142 55.6064 36.6142C54.9315 36.6142 54.3957 36.4071 53.9989 35.993C53.605 35.5759 53.4081 34.9923 53.4081 34.2422C53.4081 33.466 53.6079 32.8636 54.0076 32.4349C54.4073 32.0063 54.9257 31.7919 55.5629 31.7919C56.1798 31.7919 56.6838 32.0019 57.0748 32.4219C57.4658 32.8418 57.6612 33.4327 57.6612 34.1944C57.6612 34.2407 57.6598 34.3102 57.6569 34.4029H54.2162C54.2451 34.9098 54.3885 35.2979 54.6462 35.5672C54.904 35.8366 55.2255 35.9712 55.6107 35.9712C55.8974 35.9712 56.1422 35.8959 56.3449 35.7453C56.5476 35.5947 56.7084 35.3543 56.8271 35.0242ZM54.2596 33.7599H56.8358C56.8011 33.3719 56.7026 33.0808 56.5404 32.8867C56.2913 32.5855 55.9684 32.4349 55.5716 32.4349C55.2125 32.4349 54.9098 32.5551 54.6636 32.7955C54.4203 33.0359 54.2857 33.3574 54.2596 33.7599Z" fill="#64748B"/>
<path d="M61.632 34.82L62.401 34.9199C62.317 35.4499 62.1012 35.8655 61.7537 36.1667C61.409 36.4651 60.9847 36.6142 60.4808 36.6142C59.8494 36.6142 59.3411 36.4086 58.9559 35.9973C58.5736 35.5831 58.3824 34.9909 58.3824 34.2205C58.3824 33.7223 58.465 33.2864 58.63 32.9128C58.7951 32.5392 59.0457 32.2597 59.3816 32.0743C59.7205 31.8861 60.0883 31.7919 60.4851 31.7919C60.9862 31.7919 61.396 31.9194 61.7146 32.1742C62.0331 32.4262 62.2373 32.7854 62.3271 33.2517L61.5669 33.369C61.4944 33.0591 61.3656 32.8259 61.1802 32.6695C60.9977 32.5131 60.7762 32.4349 60.5155 32.4349C60.1216 32.4349 59.8016 32.5768 59.5554 32.8607C59.3092 33.1416 59.1861 33.5876 59.1861 34.1987C59.1861 34.8185 59.3049 35.2689 59.5424 35.5498C59.7799 35.8308 60.0898 35.9712 60.4721 35.9712C60.7791 35.9712 61.0354 35.8771 61.241 35.6889C61.4467 35.5006 61.577 35.211 61.632 34.82ZM59.8204 37.0921L60.0463 36.3231H60.6285L60.4851 36.788C60.7313 36.8169 60.9166 36.8923 61.0412 37.0139C61.1657 37.1384 61.228 37.276 61.228 37.4266C61.228 37.6438 61.1237 37.835 60.9152 38.0001C60.7067 38.1681 60.3924 38.252 59.9725 38.252C59.735 38.252 59.5264 38.2347 59.3469 38.1999L59.3947 37.6916C59.58 37.7032 59.7161 37.709 59.803 37.709C60.0753 37.709 60.2664 37.6713 60.3765 37.596C60.4605 37.5381 60.5025 37.4672 60.5025 37.3832C60.5025 37.331 60.4851 37.2847 60.4503 37.2441C60.4185 37.2036 60.3577 37.1688 60.2679 37.1399C60.1781 37.1109 60.0289 37.095 59.8204 37.0921Z" fill="#64748B"/>
<path d="M66.0807 35.9408C65.791 36.187 65.5116 36.3608 65.2422 36.4622C64.9757 36.5635 64.689 36.6142 64.382 36.6142C63.8752 36.6142 63.4856 36.4911 63.2134 36.2449C62.9411 35.9959 62.805 35.6787 62.805 35.2935C62.805 35.0676 62.8557 34.862 62.9571 34.6766C63.0613 34.4884 63.196 34.3378 63.3611 34.2248C63.5291 34.1118 63.7173 34.0264 63.9259 33.9685C64.0794 33.9279 64.3111 33.8888 64.621 33.8512C65.2523 33.7759 65.7172 33.6861 66.0155 33.5818C66.0184 33.4747 66.0198 33.4066 66.0198 33.3776C66.0198 33.0591 65.946 32.8346 65.7983 32.7043C65.5984 32.5276 65.3016 32.4393 64.9077 32.4393C64.5399 32.4393 64.2676 32.5044 64.0909 32.6348C63.9172 32.7622 63.7883 32.9895 63.7043 33.3168L62.9397 33.2126C63.0092 32.8853 63.1236 32.6217 63.2829 32.4219C63.4422 32.2191 63.6724 32.0642 63.9736 31.957C64.2749 31.847 64.6239 31.7919 65.0206 31.7919C65.4145 31.7919 65.7346 31.8383 65.9807 31.931C66.2269 32.0236 66.4079 32.1409 66.5238 32.2829C66.6396 32.4219 66.7207 32.5986 66.7671 32.8129C66.7931 32.9461 66.8062 33.1865 66.8062 33.534V34.5767C66.8062 35.3037 66.8221 35.7642 66.854 35.9582C66.8887 36.1494 66.9553 36.3333 67.0538 36.5099H66.2371C66.156 36.3478 66.1038 36.1581 66.0807 35.9408ZM66.0155 34.1944C65.7317 34.3102 65.3059 34.4087 64.7383 34.4898C64.4168 34.5361 64.1894 34.5883 64.0562 34.6462C63.923 34.7041 63.8201 34.7896 63.7477 34.9025C63.6753 35.0126 63.6391 35.1357 63.6391 35.2718C63.6391 35.4803 63.7173 35.6541 63.8737 35.7931C64.033 35.9321 64.2647 36.0017 64.5688 36.0017C64.87 36.0017 65.1379 35.9365 65.3725 35.8062C65.6071 35.6729 65.7795 35.4919 65.8895 35.2631C65.9735 35.0864 66.0155 34.8258 66.0155 34.4811V34.1944ZM63.4784 31.2141C63.4755 30.9129 63.558 30.6725 63.726 30.493C63.8911 30.3134 64.1025 30.2236 64.3603 30.2236C64.5399 30.2236 64.7846 30.3018 65.0945 30.4582C65.2654 30.5451 65.4015 30.5885 65.5029 30.5885C65.5955 30.5885 65.6665 30.5639 65.7157 30.5147C65.765 30.4626 65.7997 30.3612 65.82 30.2106H66.3848C66.3761 30.5408 66.2921 30.7884 66.1328 30.9535C65.9764 31.1186 65.7766 31.2011 65.5333 31.2011C65.3508 31.2011 65.1104 31.12 64.8121 30.9578C64.6181 30.8536 64.4761 30.8014 64.3864 30.8014C64.2879 30.8014 64.2082 30.8362 64.1474 30.9057C64.0837 30.9752 64.0533 31.078 64.0562 31.2141H63.4784Z" fill="#64748B"/>
<path d="M67.7315 34.2031C67.7315 33.3487 67.969 32.7158 68.444 32.3046C68.8408 31.9628 69.3245 31.7919 69.895 31.7919C70.5293 31.7919 71.0478 32.0005 71.4503 32.4175C71.8529 32.8317 72.0542 33.4052 72.0542 34.1379C72.0542 34.7316 71.9644 35.1994 71.7849 35.5411C71.6082 35.88 71.349 36.1436 71.0072 36.3318C70.6683 36.5201 70.2976 36.6142 69.895 36.6142C69.2492 36.6142 68.7264 36.4071 68.3267 35.993C67.9299 35.5788 67.7315 34.9822 67.7315 34.2031ZM68.5352 34.2031C68.5352 34.7939 68.6641 35.237 68.9219 35.5325C69.1797 35.825 69.504 35.9712 69.895 35.9712C70.2831 35.9712 70.6061 35.8235 70.8638 35.5281C71.1216 35.2327 71.2505 34.7823 71.2505 34.177C71.2505 33.6064 71.1202 33.1749 70.8595 32.8824C70.6017 32.587 70.2802 32.4393 69.895 32.4393C69.504 32.4393 69.1797 32.5855 68.9219 32.878C68.6641 33.1706 68.5352 33.6122 68.5352 34.2031Z" fill="#64748B"/>
<path d="M75.4515 38.2781V31.8962H76.164V32.4957C76.332 32.2611 76.5217 32.0859 76.7331 31.9701C76.9445 31.8513 77.2009 31.7919 77.5021 31.7919C77.896 31.7919 78.2435 31.8933 78.5447 32.096C78.8459 32.2988 79.0733 32.5855 79.2268 32.9562C79.3803 33.3241 79.457 33.7281 79.457 34.1683C79.457 34.6404 79.3716 35.0662 79.2007 35.4456C79.0327 35.8221 78.7866 36.1117 78.4622 36.3144C78.1407 36.5143 77.8018 36.6142 77.4456 36.6142C77.1849 36.6142 76.9503 36.5592 76.7418 36.4491C76.5362 36.3391 76.3667 36.2 76.2335 36.0321V38.2781H75.4515ZM76.1596 34.2291C76.1596 34.8229 76.2798 35.2617 76.5202 35.5455C76.7606 35.8293 77.0517 35.9712 77.3935 35.9712C77.741 35.9712 78.0379 35.825 78.2841 35.5325C78.5331 35.237 78.6577 34.7809 78.6577 34.164C78.6577 33.576 78.536 33.1358 78.2927 32.8433C78.0524 32.5508 77.7642 32.4045 77.4282 32.4045C77.0951 32.4045 76.7997 32.5609 76.542 32.8737C76.2871 33.1836 76.1596 33.6354 76.1596 34.2291Z" fill="#64748B"/>
<path d="M83.4148 35.9408C83.1251 36.187 82.8457 36.3608 82.5763 36.4622C82.3098 36.5635 82.0231 36.6142 81.7161 36.6142C81.2093 36.6142 80.8197 36.4911 80.5475 36.2449C80.2752 35.9959 80.1391 35.6787 80.1391 35.2935C80.1391 35.0676 80.1898 34.862 80.2912 34.6766C80.3954 34.4884 80.5301 34.3378 80.6952 34.2248C80.8632 34.1118 81.0514 34.0264 81.26 33.9685C81.4135 33.9279 81.6452 33.8888 81.9551 33.8512C82.5864 33.7759 83.0513 33.6861 83.3496 33.5818C83.3525 33.4747 83.354 33.4066 83.354 33.3776C83.354 33.0591 83.2801 32.8346 83.1324 32.7043C82.9325 32.5276 82.6357 32.4393 82.2418 32.4393C81.874 32.4393 81.6017 32.5044 81.425 32.6348C81.2513 32.7622 81.1224 32.9895 81.0384 33.3168L80.2738 33.2126C80.3433 32.8853 80.4577 32.6217 80.617 32.4219C80.7763 32.2191 81.0065 32.0642 81.3077 31.957C81.609 31.847 81.958 31.7919 82.3547 31.7919C82.7486 31.7919 83.0687 31.8383 83.3148 31.931C83.561 32.0236 83.7421 32.1409 83.8579 32.2829C83.9738 32.4219 84.0548 32.5986 84.1012 32.8129C84.1273 32.9461 84.1403 33.1865 84.1403 33.534V34.5767C84.1403 35.3037 84.1562 35.7642 84.1881 35.9582C84.2228 36.1494 84.2894 36.3333 84.3879 36.5099H83.5712C83.4901 36.3478 83.4379 36.1581 83.4148 35.9408ZM83.3496 34.1944C83.0658 34.3102 82.64 34.4087 82.0724 34.4898C81.7509 34.5361 81.5235 34.5883 81.3903 34.6462C81.2571 34.7041 81.1542 34.7896 81.0818 34.9025C81.0094 35.0126 80.9732 35.1357 80.9732 35.2718C80.9732 35.4803 81.0514 35.6541 81.2078 35.7931C81.3671 35.9321 81.5988 36.0017 81.9029 36.0017C82.2041 36.0017 82.472 35.9365 82.7066 35.8062C82.9412 35.6729 83.1136 35.4919 83.2236 35.2631C83.3076 35.0864 83.3496 34.8258 83.3496 34.4811V34.1944Z" fill="#64748B"/>
<path d="M85.348 36.5099V31.8962H86.0518V32.5957C86.2314 32.2684 86.3965 32.0526 86.5471 31.9483C86.7006 31.8441 86.8686 31.7919 87.051 31.7919C87.3146 31.7919 87.5825 31.8759 87.8547 32.0439L87.5854 32.7694C87.3942 32.6565 87.2031 32.6 87.0119 32.6C86.841 32.6 86.6875 32.6521 86.5514 32.7564C86.4153 32.8578 86.3183 32.9997 86.2603 33.1821C86.1735 33.4602 86.13 33.7643 86.13 34.0945V36.5099H85.348Z" fill="#64748B"/>
<path d="M91.3302 35.9408C91.0406 36.187 90.7611 36.3608 90.4918 36.4622C90.2253 36.5635 89.9386 36.6142 89.6316 36.6142C89.1247 36.6142 88.7352 36.4911 88.4629 36.2449C88.1907 35.9959 88.0546 35.6787 88.0546 35.2935C88.0546 35.0676 88.1053 34.862 88.2066 34.6766C88.3109 34.4884 88.4456 34.3378 88.6107 34.2248C88.7786 34.1118 88.9669 34.0264 89.1754 33.9685C89.3289 33.9279 89.5606 33.8888 89.8705 33.8512C90.5019 33.7759 90.9668 33.6861 91.2651 33.5818C91.268 33.4747 91.2694 33.4066 91.2694 33.3776C91.2694 33.0591 91.1956 32.8346 91.0479 32.7043C90.848 32.5276 90.5512 32.4393 90.1573 32.4393C89.7894 32.4393 89.5172 32.5044 89.3405 32.6348C89.1667 32.7622 89.0379 32.9895 88.9539 33.3168L88.1893 33.2126C88.2588 32.8853 88.3732 32.6217 88.5325 32.4219C88.6918 32.2191 88.922 32.0642 89.2232 31.957C89.5244 31.847 89.8734 31.7919 90.2702 31.7919C90.6641 31.7919 90.9841 31.8383 91.2303 31.931C91.4765 32.0236 91.6575 32.1409 91.7734 32.2829C91.8892 32.4219 91.9703 32.5986 92.0167 32.8129C92.0427 32.9461 92.0558 33.1865 92.0558 33.534V34.5767C92.0558 35.3037 92.0717 35.7642 92.1035 35.9582C92.1383 36.1494 92.2049 36.3333 92.3034 36.5099H91.4866C91.4055 36.3478 91.3534 36.1581 91.3302 35.9408ZM91.2651 34.1944C90.9812 34.3102 90.5555 34.4087 89.9878 34.4898C89.6663 34.5361 89.439 34.5883 89.3058 34.6462C89.1725 34.7041 89.0697 34.7896 88.9973 34.9025C88.9249 35.0126 88.8887 35.1357 88.8887 35.2718C88.8887 35.4803 88.9669 35.6541 89.1233 35.7931C89.2826 35.9321 89.5143 36.0017 89.8184 36.0017C90.1196 36.0017 90.3875 35.9365 90.6221 35.8062C90.8567 35.6729 91.029 35.4919 91.1391 35.2631C91.2231 35.0864 91.2651 34.8258 91.2651 34.4811V34.1944Z" fill="#64748B"/>
<path d="M95.4357 35.1328L96.209 35.0111C96.2524 35.321 96.3726 35.5585 96.5696 35.7236C96.7694 35.8887 97.0475 35.9712 97.4037 35.9712C97.7628 35.9712 98.0293 35.8988 98.2031 35.754C98.3768 35.6063 98.4637 35.434 98.4637 35.237C98.4637 35.0604 98.387 34.9213 98.2335 34.82C98.1263 34.7505 97.8599 34.6621 97.4341 34.555C96.8606 34.4102 96.4624 34.2856 96.2394 34.1814C96.0193 34.0742 95.8513 33.9279 95.7355 33.7426C95.6225 33.5543 95.566 33.3472 95.566 33.1213C95.566 32.9157 95.6124 32.726 95.705 32.5522C95.8006 32.3755 95.9295 32.2293 96.0917 32.1134C96.2133 32.0236 96.3784 31.9483 96.587 31.8875C96.7984 31.8238 97.0243 31.7919 97.2647 31.7919C97.6267 31.7919 97.9438 31.8441 98.2161 31.9483C98.4912 32.0526 98.694 32.1945 98.8243 32.3741C98.9546 32.5508 99.0444 32.7883 99.0937 33.0866L98.3291 33.1908C98.2943 32.9533 98.1929 32.768 98.0249 32.6348C97.8599 32.5015 97.6253 32.4349 97.3212 32.4349C96.962 32.4349 96.7057 32.4943 96.5522 32.613C96.3987 32.7318 96.3219 32.8708 96.3219 33.0301C96.3219 33.1315 96.3538 33.2227 96.4175 33.3038C96.4812 33.3878 96.5812 33.4573 96.7173 33.5123C96.7955 33.5413 97.0257 33.6079 97.408 33.7122C97.9612 33.8599 98.3464 33.9815 98.5636 34.0771C98.7838 34.1698 98.9561 34.3059 99.0806 34.4855C99.2052 34.665 99.2674 34.888 99.2674 35.1545C99.2674 35.4152 99.1907 35.6613 99.0372 35.893C98.8866 36.1218 98.6679 36.3 98.3812 36.4274C98.0945 36.5519 97.7701 36.6142 97.408 36.6142C96.8085 36.6142 96.3509 36.4897 96.0352 36.2406C95.7224 35.9915 95.5226 35.6222 95.4357 35.1328Z" fill="#64748B"/>
<path d="M103.221 36.5099V35.8322C102.862 36.3535 102.374 36.6142 101.757 36.6142C101.485 36.6142 101.23 36.5621 100.992 36.4578C100.758 36.3535 100.582 36.2232 100.466 36.0668C100.354 35.9075 100.274 35.7135 100.228 35.4847C100.196 35.3312 100.18 35.0879 100.18 34.7548V31.8962H100.962V34.4551C100.962 34.8634 100.978 35.1386 101.01 35.2805C101.059 35.4861 101.163 35.6483 101.322 35.7671C101.482 35.8829 101.679 35.9408 101.913 35.9408C102.148 35.9408 102.368 35.8815 102.574 35.7627C102.779 35.6411 102.924 35.4774 103.008 35.2718C103.095 35.0633 103.138 34.7621 103.138 34.3682V31.8962H103.92V36.5099H103.221Z" fill="#64748B"/>
<path d="M108.16 35.9408C107.871 36.187 107.591 36.3608 107.322 36.4622C107.055 36.5635 106.769 36.6142 106.462 36.6142C105.955 36.6142 105.565 36.4911 105.293 36.2449C105.021 35.9959 104.885 35.6787 104.885 35.2935C104.885 35.0676 104.935 34.862 105.037 34.6766C105.141 34.4884 105.276 34.3378 105.441 34.2248C105.609 34.1118 105.797 34.0264 106.006 33.9685C106.159 33.9279 106.391 33.8888 106.701 33.8512C107.332 33.7759 107.797 33.6861 108.095 33.5818C108.098 33.4747 108.1 33.4066 108.1 33.3776C108.1 33.0591 108.026 32.8346 107.878 32.7043C107.678 32.5276 107.381 32.4393 106.987 32.4393C106.62 32.4393 106.347 32.5044 106.171 32.6348C105.997 32.7622 105.868 32.9895 105.784 33.3168L105.019 33.2126C105.089 32.8853 105.203 32.6217 105.363 32.4219C105.522 32.2191 105.752 32.0642 106.053 31.957C106.355 31.847 106.704 31.7919 107.1 31.7919C107.494 31.7919 107.814 31.8383 108.06 31.931C108.307 32.0236 108.488 32.1409 108.604 32.2829C108.719 32.4219 108.8 32.5986 108.847 32.8129C108.873 32.9461 108.886 33.1865 108.886 33.534V34.5767C108.886 35.3037 108.902 35.7642 108.934 35.9582C108.968 36.1494 109.035 36.3333 109.134 36.5099H108.317C108.236 36.3478 108.184 36.1581 108.16 35.9408ZM108.095 34.1944C107.811 34.3102 107.386 34.4087 106.818 34.4898C106.496 34.5361 106.269 34.5883 106.136 34.6462C106.003 34.7041 105.9 34.7896 105.827 34.9025C105.755 35.0126 105.719 35.1357 105.719 35.2718C105.719 35.4803 105.797 35.6541 105.953 35.7931C106.113 35.9321 106.344 36.0017 106.649 36.0017C106.95 36.0017 107.218 35.9365 107.452 35.8062C107.687 35.6729 107.859 35.4919 107.969 35.2631C108.053 35.0864 108.095 34.8258 108.095 34.4811V34.1944Z" fill="#64748B"/>
<path d="M113.86 36.5099L112.105 31.8962H112.931L113.921 34.6592C114.028 34.9576 114.127 35.2675 114.216 35.5889C114.286 35.3456 114.383 35.0531 114.508 34.7114L115.533 31.8962H116.337L114.59 36.5099H113.86Z" fill="#64748B"/>
<path d="M117.032 31.0404V30.1411H117.814V31.0404H117.032ZM117.032 36.5099V31.8962H117.814V36.5099H117.032Z" fill="#64748B"/>
<path d="M122.002 36.5099V35.9278C121.709 36.3854 121.279 36.6142 120.711 36.6142C120.344 36.6142 120.005 36.5128 119.695 36.3101C119.388 36.1074 119.149 35.825 118.978 35.4629C118.81 35.098 118.726 34.6795 118.726 34.2074C118.726 33.7469 118.803 33.3299 118.956 32.9562C119.11 32.5797 119.34 32.2915 119.647 32.0917C119.954 31.8919 120.297 31.7919 120.677 31.7919C120.955 31.7919 121.202 31.8513 121.419 31.9701C121.637 32.0859 121.813 32.238 121.949 32.4262V30.1411H122.727V36.5099H122.002ZM119.53 34.2074C119.53 34.7983 119.654 35.2399 119.903 35.5325C120.152 35.825 120.446 35.9712 120.785 35.9712C121.127 35.9712 121.417 35.8322 121.654 35.5542C121.894 35.2732 122.015 34.846 122.015 34.2726C122.015 33.6412 121.893 33.1778 121.65 32.8824C121.406 32.587 121.107 32.4393 120.75 32.4393C120.403 32.4393 120.112 32.5812 119.877 32.865C119.646 33.1488 119.53 33.5963 119.53 34.2074Z" fill="#64748B"/>
<path d="M126.972 35.9408C126.682 36.187 126.402 36.3608 126.133 36.4622C125.867 36.5635 125.58 36.6142 125.273 36.6142C124.766 36.6142 124.377 36.4911 124.104 36.2449C123.832 35.9959 123.696 35.6787 123.696 35.2935C123.696 35.0676 123.747 34.862 123.848 34.6766C123.952 34.4884 124.087 34.3378 124.252 34.2248C124.42 34.1118 124.608 34.0264 124.817 33.9685C124.97 33.9279 125.202 33.8888 125.512 33.8512C126.143 33.7759 126.608 33.6861 126.906 33.5818C126.909 33.4747 126.911 33.4066 126.911 33.3776C126.911 33.0591 126.837 32.8346 126.689 32.7043C126.489 32.5276 126.192 32.4393 125.799 32.4393C125.431 32.4393 125.159 32.5044 124.982 32.6348C124.808 32.7622 124.679 32.9895 124.595 33.3168L123.831 33.2126C123.9 32.8853 124.015 32.6217 124.174 32.4219C124.333 32.2191 124.563 32.0642 124.865 31.957C125.166 31.847 125.515 31.7919 125.912 31.7919C126.305 31.7919 126.625 31.8383 126.872 31.931C127.118 32.0236 127.299 32.1409 127.415 32.2829C127.531 32.4219 127.612 32.5986 127.658 32.8129C127.684 32.9461 127.697 33.1865 127.697 33.534V34.5767C127.697 35.3037 127.713 35.7642 127.745 35.9582C127.78 36.1494 127.846 36.3333 127.945 36.5099H127.128C127.047 36.3478 126.995 36.1581 126.972 35.9408ZM126.906 34.1944C126.623 34.3102 126.197 34.4087 125.629 34.4898C125.308 34.5361 125.08 34.5883 124.947 34.6462C124.814 34.7041 124.711 34.7896 124.639 34.9025C124.566 35.0126 124.53 35.1357 124.53 35.2718C124.53 35.4803 124.608 35.6541 124.765 35.7931C124.924 35.9321 125.156 36.0017 125.46 36.0017C125.761 36.0017 126.029 35.9365 126.263 35.8062C126.498 35.6729 126.67 35.4919 126.78 35.2631C126.864 35.0864 126.906 34.8258 126.906 34.4811V34.1944Z" fill="#64748B"/>
<path d="M16.3663 2.40363L30.8244 8.59996V25.1235L16.3663 31.3199L1.9082 25.1235V8.59996L16.3663 2.40363Z" fill="#2563EB" stroke="#1E40AF" stroke-width="3"/>
<path d="M16.3661 10.8095L22.4184 16.8618H18.3836V22.914H14.3487V16.8618H10.3139L16.3661 10.8095Z" fill="white"/>
</svg>
