<svg width="213" height="24" viewBox="0 0 213 24" fill="none" xmlns="http://www.w3.org/2000/svg">
<g clip-path="url(#clip0_1_114)">
<path d="M185.289 24H176.306V18.194C176.306 18.131 176.311 18.066 176.311 18C176.314 16.9921 175.915 16.022 175.198 15.2903C174.482 14.5586 173.501 14.1213 172.461 14.069L172.254 14.064H170.274V24H160.989V0.008H179.109C180.755 0.00800002 182.333 0.640141 183.496 1.76536C184.66 2.89058 185.313 4.4167 185.313 6.008C185.313 7.5993 184.66 9.12542 183.496 10.2506C182.333 11.3759 180.755 12.008 179.109 12.008C180.717 12.0101 182.26 12.6162 183.414 13.6985C184.568 14.7807 185.241 16.2543 185.292 17.808V24H185.289ZM170.268 2.763V9.942H172.248C173.326 9.93935 174.358 9.52336 175.119 8.78529C175.88 8.04722 176.307 7.04734 176.307 6.005C176.316 5.54367 176.212 5.08683 176.003 4.67227C175.793 4.25771 175.485 3.89735 175.103 3.621C174.327 3.07806 173.398 2.77949 172.441 2.766H172.248L170.268 2.763ZM12.3695 24C9.08389 23.995 5.93489 22.7279 3.61518 20.4775C1.29548 18.2271 -0.00492596 15.1777 1.40232e-05 12C0.00480794 10.0341 0.510529 8.09959 1.47243 6.3677C2.43434 4.63581 3.82278 3.1599 5.51491 2.07055C7.20704 0.981203 9.15071 0.311993 11.1739 0.122128C13.1972 -0.0677375 15.2376 0.227596 17.1147 0.982001C18.9918 1.7364 20.6478 2.92662 21.936 4.44735C23.2242 5.96809 24.1051 7.77245 24.5006 9.70081C24.8961 11.6292 24.794 13.6221 24.2035 15.5032C23.613 17.3844 22.5522 19.0958 21.1149 20.486C19.9707 21.603 18.6083 22.4888 17.107 23.0921C15.6056 23.6953 13.9953 24.004 12.3695 24ZM12.3695 1.143C10.8975 1.1451 9.44039 1.4276 8.08129 1.97436C6.7222 2.52113 5.48777 3.32145 4.4485 4.32963C3.40923 5.33781 2.58548 6.5341 2.02427 7.85018C1.46307 9.16628 1.17541 10.5764 1.17772 12C1.18467 14.1391 1.84687 16.2282 3.0807 18.0035C4.31453 19.7789 6.06464 21.1608 8.11003 21.9748C10.1554 22.7888 12.4043 22.9983 14.5728 22.577C16.7412 22.1556 18.732 21.1222 20.2935 19.6074C21.8551 18.0925 22.9175 16.1641 23.3466 14.0656C23.7757 11.9671 23.5522 9.79278 22.7043 7.8171C21.8564 5.84141 20.4222 4.15303 18.5828 2.96516C16.7434 1.77729 14.5813 1.14321 12.3695 1.143ZM81.9006 24H72.7664L79.8709 0H96.0113L103.115 24H93.9827L92.8163 20.062H83.0669L81.9006 24ZM87.9411 3.595L84.2322 16.123H91.65L87.9411 3.595ZM48.6188 24H39.4857V0H48.6188L54.6593 12L60.7009 0H69.8351V24H60.7009V12L54.6593 24L48.6188 12V24ZM213 24H188.714V0H213V3.938H197.848V10.038H213V13.98H197.848V20.061H213V24ZM142.635 24H133.501V0H157.785V3.939H142.636V10.039H157.785V13.978H142.636L142.635 24ZM115.16 24H106.026V0.012H123.122C124.541 0.0170867 125.927 0.425192 127.107 1.1856C128.288 1.94601 129.212 3.0252 129.763 4.28907C130.315 5.55293 130.471 6.94574 130.211 8.29443C129.951 9.64312 129.287 10.8882 128.302 11.875C127.008 13.1781 125.239 13.9406 123.371 14H123.124H115.163V24H115.16ZM115.315 2.761V9.941H117.296C117.832 9.94597 118.363 9.84733 118.859 9.65086C119.355 9.45439 119.805 9.16406 120.184 8.79693C120.562 8.42979 120.86 7.99324 121.062 7.51294C121.263 7.03263 121.363 6.51825 121.356 6C121.356 3.851 119.418 2.824 117.496 2.76H117.297L115.315 2.761ZM12.9765 18H11.7626V14.327L10.2033 14.315H10.1403L6.11601 14.325H6.02192C5.77507 14.3244 5.5309 14.2756 5.30405 14.1815C5.0772 14.0873 4.87235 13.9499 4.70181 13.7773C4.53127 13.6047 4.39855 13.4005 4.31161 13.1771C4.22467 12.9536 4.18532 12.7155 4.19591 12.477C4.19632 12.3961 4.20428 12.3155 4.21969 12.236C4.517 10.6266 5.38634 9.16826 6.67746 8.113C7.03477 7.86238 7.46445 7.72666 7.90583 7.725C8.01466 7.72485 8.1233 7.73388 8.2305 7.752C8.30641 7.50656 8.4322 7.27824 8.60052 7.08043C8.76884 6.88261 8.97629 6.71928 9.21071 6.6C9.28741 6.55717 9.36806 6.52135 9.45163 6.493C11.3408 5.83013 13.4107 5.83013 15.2998 6.493C15.575 6.61177 15.8225 6.78297 16.0277 6.99637C16.2329 7.20976 16.3915 7.46098 16.4941 7.735C16.6257 7.70576 16.7602 7.691 16.8953 7.691C17.2837 7.6903 17.6615 7.81408 17.9696 8.043C18.6419 8.58912 19.2148 9.2405 19.6643 9.97C20.0833 10.6715 20.3727 11.4383 20.5194 12.236C20.5296 12.2932 20.5365 12.351 20.54 12.409V12.477C20.5506 12.7139 20.5118 12.9505 20.4261 13.1727C20.3404 13.3949 20.2094 13.5981 20.041 13.7705C19.8725 13.9428 19.67 14.0807 19.4455 14.1759C19.2209 14.2712 18.9789 14.3219 18.7337 14.325H18.6189L14.5947 14.315L14.2131 14.322L12.9723 14.328V18H12.9765ZM12.3695 7.173C11.5151 7.17294 10.6672 7.31745 9.86419 7.6L9.82283 7.613L9.79388 7.629C9.69985 7.67233 9.616 7.73382 9.54747 7.80968C9.47895 7.88554 9.42721 7.97417 9.39544 8.0701C9.36366 8.16603 9.35253 8.26723 9.36273 8.36748C9.37293 8.46773 9.40424 8.5649 9.45473 8.653L9.49506 8.714L12.0221 12.938C12.0503 12.9965 12.094 13.0468 12.1487 13.0837C12.2035 13.1206 12.2675 13.1427 12.334 13.1479C12.4005 13.1531 12.4673 13.1411 12.5275 13.1132C12.5877 13.0853 12.6391 13.0424 12.6766 12.989L15.2305 8.72C15.3243 8.59535 15.3746 8.44512 15.3743 8.291C15.3743 8.15734 15.3368 8.02619 15.2658 7.91153C15.1948 7.79688 15.0929 7.70302 14.971 7.64L14.8893 7.6C14.0818 7.31567 13.2289 7.17113 12.3695 7.173ZM16.887 8.873C16.7787 8.87363 16.6725 8.90166 16.5789 8.95428C16.4853 9.00691 16.4076 9.08232 16.3535 9.173L16.3245 9.227L14.2865 12.673C14.2552 12.7192 14.2376 12.7729 14.2358 12.8281C14.234 12.8833 14.2479 12.938 14.2762 12.986C14.3009 13.0282 14.336 13.0638 14.3784 13.0896C14.4208 13.1154 14.4692 13.1307 14.5192 13.134L18.6623 13.144H18.7171C18.872 13.1425 19.0207 13.085 19.1339 12.9829C19.2472 12.8807 19.3169 12.7413 19.3293 12.592V12.492C19.3319 12.4728 19.3319 12.4532 19.3293 12.434C19.0937 11.162 18.4286 10.0014 17.4381 9.134L17.2592 9C17.1522 8.92103 17.0216 8.87786 16.887 8.877V8.873ZM7.85206 8.873C7.73956 8.87279 7.62912 8.90217 7.53256 8.958L7.45915 9.008C6.38537 9.88581 5.66204 11.0986 5.41394 12.437V12.469V12.5C5.40718 12.5806 5.41734 12.6617 5.4438 12.7384C5.47025 12.8151 5.51247 12.8858 5.5679 12.9463C5.62334 13.0068 5.69085 13.0559 5.76638 13.0906C5.84191 13.1252 5.92391 13.1448 6.00744 13.148H6.07982L10.1744 13.138H10.2013C10.2549 13.1374 10.3076 13.1234 10.354 13.0973C10.4004 13.0712 10.4389 13.0339 10.466 12.989C10.4904 12.9478 10.5044 12.9015 10.5067 12.8541C10.509 12.8066 10.4997 12.7593 10.4794 12.716L8.41352 9.23C8.3645 9.12557 8.28557 9.03691 8.18606 8.97452C8.08656 8.91214 7.97065 8.87864 7.85206 8.878V8.873Z" fill="#D81E05"/>
</g>
<defs>
<clipPath id="clip0_1_114">
<rect width="213" height="24" fill="white"/>
</clipPath>
</defs>
</svg>
