<svg width="38" height="38" viewBox="0 0 38 38" fill="none" xmlns="http://www.w3.org/2000/svg">
<g clip-path="url(#clip0_1_196)">
<mask id="mask0_1_196" style="mask-type:luminance" maskUnits="userSpaceOnUse" x="0" y="0" width="38" height="38">
<path d="M38 0H0V38H38V0Z" fill="white"/>
</mask>
<g mask="url(#mask0_1_196)">
<path d="M19 15.8332C19 17.5821 17.5822 18.9998 15.8333 18.9998C14.0844 18.9998 12.6666 17.5821 12.6666 15.8332C12.6666 14.0843 14.0844 12.6665 15.8333 12.6665C17.5822 12.6665 19 14.0843 19 15.8332Z" fill="#D81E06"/>
<path fill-rule="evenodd" clip-rule="evenodd" d="M0 9.49992C0 7.75102 1.41777 6.33325 3.16667 6.33325H28.5C30.2489 6.33325 31.6667 7.75102 31.6667 9.49992V22.1666C31.6667 23.9155 30.2489 25.3333 28.5 25.3333H3.16667C1.41777 25.3333 0 23.9155 0 22.1666V9.49992ZM3.16667 22.1666V9.49992H28.5V22.1666H3.16667Z" fill="#D81E06"/>
<path d="M31.6667 28.4998C33.4156 28.4998 34.8333 27.0821 34.8333 25.3332V14.2498C34.8333 13.3754 35.5422 12.6665 36.4167 12.6665C37.2911 12.6665 38 13.3754 38 14.2498V25.3332C38 28.8309 35.1644 31.6665 31.6667 31.6665H6.33333C5.45889 31.6665 4.75 30.9576 4.75 30.0832C4.75 29.2087 5.45889 28.4998 6.33333 28.4998H31.6667Z" fill="#D81E06"/>
</g>
</g>
<defs>
<clipPath id="clip0_1_196">
<rect width="38" height="38" fill="white"/>
</clipPath>
</defs>
</svg>
