<svg width="39" height="38" viewBox="0 0 39 38" fill="none" xmlns="http://www.w3.org/2000/svg">
<path d="M29.25 22.1667C29.25 23.4784 28.1586 24.5417 26.8125 24.5417C25.4663 24.5417 24.375 23.4784 24.375 22.1667C24.375 20.8551 25.4663 19.7917 26.8125 19.7917C28.1586 19.7917 29.25 20.8551 29.25 22.1667Z" fill="#D81E06"/>
<path fill-rule="evenodd" clip-rule="evenodd" d="M8.125 4.75C5.43262 4.75 3.25 6.87665 3.25 9.5V30.0833C3.25 31.8323 4.70507 33.25 6.5 33.25H32.5C34.295 33.25 35.75 31.8323 35.75 30.0833V14.25C35.75 12.5011 34.295 11.0833 32.5 11.0833V7.91667C32.5 6.16776 31.045 4.75 29.25 4.75H8.125ZM6.5 9.5C6.5 10.3745 7.22755 11.0833 8.125 11.0833H29.25V7.91667H8.125C7.22755 7.91667 6.5 8.62556 6.5 9.5ZM6.5 13.9797C7.00827 14.1548 7.55523 14.25 8.125 14.25H32.5V30.0833H6.5V13.9797Z" fill="#D81E06"/>
</svg>
