<svg width="39" height="38" viewBox="0 0 39 38" fill="none" xmlns="http://www.w3.org/2000/svg">
<g clip-path="url(#clip0_1_186)">
<path d="M18 4C15.0333 4 12.1332 4.87973 9.66645 6.52796C7.19972 8.17618 5.27713 10.5189 4.14181 13.2597C3.0065 16.0006 2.70945 19.0166 3.28823 21.9264C3.86701 24.8361 5.29562 27.5088 7.3934 29.6066C9.49119 31.7044 12.1639 33.133 15.0737 33.7118C17.9834 34.2906 20.9994 33.9935 23.7403 32.8582C26.4812 31.7229 28.8238 29.8003 30.472 27.3336C32.1203 24.8668 33 21.9667 33 19C33 17.0302 32.612 15.0796 31.8582 13.2597C31.1044 11.4399 29.9995 9.78628 28.6066 8.3934C27.2137 7.00052 25.5601 5.89563 23.7403 5.14181C21.9204 4.38799 19.9698 4 18 4ZM18 31C15.6266 31 13.3066 30.2962 11.3332 28.9776C9.35977 27.6591 7.8217 25.7849 6.91345 23.5922C6.0052 21.3995 5.76756 18.9867 6.23058 16.6589C6.69361 14.3311 7.83649 12.1929 9.51473 10.5147C11.193 8.83649 13.3312 7.6936 15.6589 7.23058C17.9867 6.76755 20.3995 7.00519 22.5922 7.91345C24.7849 8.8217 26.6591 10.3598 27.9776 12.3332C29.2962 14.3065 30 16.6266 30 19C30 22.1826 28.7357 25.2348 26.4853 27.4853C24.2349 29.7357 21.1826 31 18 31Z" fill="#D81E06"/>
<path d="M24 17.5H19.5V13C19.5 12.6022 19.342 12.2206 19.0607 11.9393C18.7794 11.658 18.3978 11.5 18 11.5C17.6022 11.5 17.2206 11.658 16.9393 11.9393C16.658 12.2206 16.5 12.6022 16.5 13V19C16.5 19.3978 16.658 19.7794 16.9393 20.0607C17.2206 20.342 17.6022 20.5 18 20.5H24C24.3978 20.5 24.7794 20.342 25.0607 20.0607C25.342 19.7794 25.5 19.3978 25.5 19C25.5 18.6022 25.342 18.2206 25.0607 17.9393C24.7794 17.658 24.3978 17.5 24 17.5Z" fill="#D81E06"/>
</g>
<defs>
<clipPath id="clip0_1_186">
<rect width="36" height="36" fill="white" transform="translate(0 1)"/>
</clipPath>
</defs>
</svg>
