<svg width="51" height="51" viewBox="0 0 51 51" fill="none" xmlns="http://www.w3.org/2000/svg">
<g clip-path="url(#clip0_1_162)">
<path d="M14.3238 42.9516L15.0908 43.3998C18.2982 45.3023 21.9838 46.3084 25.7291 46.3084H25.739C37.2638 46.3084 46.6371 36.9352 46.647 25.4104C46.647 19.8223 44.4756 14.5729 40.531 10.6283C36.6164 6.69375 31.2972 4.48242 25.749 4.50235C14.2142 4.50235 4.84099 13.8756 4.83103 25.4004C4.82107 29.335 5.93669 33.1898 8.02849 36.5268L8.52654 37.3137L6.41482 45.0234L14.3238 42.9516ZM0.36853 51L3.93455 37.9711C1.74314 34.1561 0.57771 29.833 0.587671 25.4004C0.587671 11.5348 11.8734 0.258987 25.739 0.258987C32.4627 0.258987 38.7779 2.87871 43.5293 7.63008C48.2806 12.3814 50.8904 18.6967 50.8904 25.4203C50.8804 39.2859 39.6047 50.5617 25.739 50.5617H25.7291C21.5156 50.5617 17.3818 49.5059 13.7062 47.5037L0.36853 51Z" fill="#B3B3B3"/>
<path d="M0.109619 50.741L3.6856 37.7121C1.47427 33.8871 0.318799 29.5541 0.32876 25.1414C0.32876 11.2758 11.6145 0 25.4801 0C32.2038 0 38.519 2.61973 43.2704 7.37109C48.0217 12.1225 50.6315 18.4377 50.6315 25.1613C50.6215 39.027 39.3358 50.3027 25.4801 50.3027H25.4702C21.2567 50.3027 17.1229 49.2469 13.4473 47.2447L0.109619 50.741Z" fill="white"/>
<path d="M25.4801 4.24336C13.9453 4.24336 4.57209 13.6166 4.56213 25.1414C4.56213 29.076 5.67776 32.9309 7.76956 36.2678L8.2676 37.0547L6.15588 44.7644L14.0649 42.6926L14.8319 43.1408C18.0393 45.0434 21.7248 46.0494 25.4701 46.0494H25.4801C37.0049 46.0494 46.3781 36.6762 46.3881 25.1514C46.408 19.6031 44.2067 14.284 40.2721 10.3693C36.3574 6.44472 31.0283 4.2334 25.4801 4.24336Z" fill="url(#paint0_linear_1_162)"/>
<path fill-rule="evenodd" clip-rule="evenodd" d="M19.1947 14.6326C18.7266 13.5867 18.2285 13.5668 17.7803 13.5469L16.575 13.5369C16.1566 13.5369 15.4793 13.6963 14.9016 14.3238C14.3238 14.9514 12.7002 16.4754 12.7002 19.5633C12.7002 22.6512 14.9514 25.6395 15.2701 26.0578C15.5889 26.4762 19.6131 33.0205 26.008 35.5406C31.3172 37.6324 32.393 37.2141 33.5484 37.1145C34.7039 37.0049 37.2639 35.5904 37.7918 34.1262C38.3197 32.6619 38.3197 31.3969 38.1603 31.1379C38.001 30.8789 37.5826 30.7195 36.9551 30.4008C36.3275 30.082 33.2396 28.568 32.6619 28.3588C32.0842 28.1496 31.6658 28.04 31.2475 28.6775C30.8291 29.3051 29.6238 30.7195 29.2553 31.1379C28.8867 31.5562 28.5182 31.6061 27.8906 31.2973C27.2631 30.9785 25.241 30.3211 22.8404 28.1795C20.9678 26.516 19.7127 24.4541 19.3441 23.8266C18.9756 23.199 19.3043 22.8603 19.623 22.5416C19.902 22.2627 20.2506 21.8045 20.5693 21.4359C20.8881 21.0674 20.9877 20.8084 21.1969 20.39C21.4061 19.9717 21.3064 19.6031 21.1471 19.2844C20.9678 18.9855 19.7525 15.8777 19.1947 14.6326Z" fill="white"/>
</g>
<defs>
<linearGradient id="paint0_linear_1_162" x1="25.3671" y1="6.75461" x2="25.579" y2="42.4856" gradientUnits="userSpaceOnUse">
<stop stop-color="#57D163"/>
<stop offset="1" stop-color="#23B33A"/>
</linearGradient>
<clipPath id="clip0_1_162">
<rect width="51" height="51" fill="white"/>
</clipPath>
</defs>
</svg>
