<svg xmlns="http://www.w3.org/2000/svg" width="19.479" height="15.827" viewBox="0 0 19.479 15.827">
  <g id="social-twitter" transform="translate(-7.969 -12.23)">
    <path id="Path_440" data-name="Path 440" d="M19.479-15.3a8.244,8.244,0,0,1-2.3.628,4.1,4.1,0,0,0,1.084-.951,4,4,0,0,0,.685-1.275,7.864,7.864,0,0,1-2.549.97,3.99,3.99,0,0,0-1.294-.923,3.9,3.9,0,0,0-1.617-.333,3.967,3.967,0,0,0-2.825,1.17,3.967,3.967,0,0,0-1.17,2.825,4.288,4.288,0,0,0,.1.913,11.436,11.436,0,0,1-4.622-1.246,11.341,11.341,0,0,1-3.614-2.939,4.194,4.194,0,0,0-.533,2.016,3.9,3.9,0,0,0,.476,1.912,4.021,4.021,0,0,0,1.294,1.417A3.966,3.966,0,0,1,.78-11.614v.038A4.031,4.031,0,0,0,1.7-9.027a3.984,3.984,0,0,0,2.292,1.37A3.73,3.73,0,0,1,2.929-7.5a3.592,3.592,0,0,1-.742-.076,3.939,3.939,0,0,0,1.4,1.969,4.07,4.07,0,0,0,2.33.808A8.1,8.1,0,0,1,3.624-3.558a8.3,8.3,0,0,1-2.673.466A7.976,7.976,0,0,1,0-3.149,11.334,11.334,0,0,0,2.882-1.827a11.205,11.205,0,0,0,3.243.466q5.536-.209,8.446-3.7A11.807,11.807,0,0,0,17.5-12.736q0-.247-.019-.514A8.308,8.308,0,0,0,19.479-15.3Z" transform="translate(7.969 29.417)" fill="#fff"/>
  </g>
</svg>
