<svg xmlns="http://www.w3.org/2000/svg" width="17.044" height="17.044" viewBox="0 0 17.044 17.044">
  <g id="social-facebook" transform="translate(-9.186 -11.621)">
    <path id="Path_439" data-name="Path 439" d="M2.745-17.875H17.05a1.381,1.381,0,0,1,.97.4,1.381,1.381,0,0,1,.4.97V-2.2a1.381,1.381,0,0,1-.4.97,1.381,1.381,0,0,1-.97.4H2.745a1.381,1.381,0,0,1-.97-.4,1.381,1.381,0,0,1-.4-.97V-16.505a1.381,1.381,0,0,1,.4-.97A1.381,1.381,0,0,1,2.745-17.875ZM13.131-.831v-6.6h2.226L15.68-10H13.131v-1.655a1.37,1.37,0,0,1,.238-.894,1.245,1.245,0,0,1,1.037-.342h1.37v-2.3a7.038,7.038,0,0,0-.732-.076q-.542-.038-1.265-.038a3.339,3.339,0,0,0-2.378.885,3.467,3.467,0,0,0-.932,2.52V-10H8.261v2.568h2.207v6.6Z" transform="translate(7.811 29.496)" fill="#fff"/>
  </g>
</svg>
