<svg xmlns="http://www.w3.org/2000/svg" width="17.052" height="17.052" viewBox="0 0 17.052 17.052">
  <g id="social-instagram" transform="translate(-9.182 -11.617)">
    <path id="Path_443" data-name="Path 443" d="M12.731-9.353A2.791,2.791,0,0,0,11.9-11.36,2.791,2.791,0,0,0,9.9-12.188a2.791,2.791,0,0,0-2.007.827,2.791,2.791,0,0,0-.827,2.007A2.791,2.791,0,0,0,7.89-7.346,2.791,2.791,0,0,0,9.9-6.519,2.791,2.791,0,0,0,11.9-7.346,2.791,2.791,0,0,0,12.731-9.353Zm1.541,0a4.392,4.392,0,0,1-1.284,3.091A4.392,4.392,0,0,1,9.9-4.978,4.392,4.392,0,0,1,6.805-6.262,4.392,4.392,0,0,1,5.521-9.353a4.392,4.392,0,0,1,1.284-3.091A4.392,4.392,0,0,1,9.9-13.729a4.392,4.392,0,0,1,3.091,1.284A4.392,4.392,0,0,1,14.272-9.353Zm1.2-4.546a1.048,1.048,0,0,1-.3.723.98.98,0,0,1-.723.285.98.98,0,0,1-.723-.285.98.98,0,0,1-.285-.723.98.98,0,0,1,.285-.723.98.98,0,0,1,.723-.285.98.98,0,0,1,.723.285A1.048,1.048,0,0,1,15.47-13.9ZM9.9-16.335q-1.027-.019-2.559,0a8.005,8.005,0,0,0-2.463.342,3.111,3.111,0,0,0-.523.266,2.724,2.724,0,0,0-.457.371,2.724,2.724,0,0,0-.371.457,3.111,3.111,0,0,0-.266.523,8.005,8.005,0,0,0-.342,2.463Q2.9-10.381,2.9-9.353t.019,2.559a8.005,8.005,0,0,0,.342,2.463,3.111,3.111,0,0,0,.266.523,2.724,2.724,0,0,0,.371.457,2.724,2.724,0,0,0,.457.371,3.111,3.111,0,0,0,.523.266,8.005,8.005,0,0,0,2.463.342q1.531.019,2.559.019t2.559-.019a8.005,8.005,0,0,0,2.463-.342,3.111,3.111,0,0,0,.523-.266,2.724,2.724,0,0,0,.457-.371,2.724,2.724,0,0,0,.371-.457,3.111,3.111,0,0,0,.266-.523,8.005,8.005,0,0,0,.342-2.463q.019-1.531.019-2.559t-.019-2.559a8.005,8.005,0,0,0-.342-2.463,3.111,3.111,0,0,0-.266-.523,2.724,2.724,0,0,0-.371-.457,2.724,2.724,0,0,0-.457-.371,3.111,3.111,0,0,0-.523-.266,8.005,8.005,0,0,0-2.463-.342Q10.924-16.354,9.9-16.335Zm8.522,6.981q.019,1.75-.057,3.519a6.7,6.7,0,0,1-.342,1.921,4.238,4.238,0,0,1-1.046,1.636,4.238,4.238,0,0,1-1.636,1.046,6.7,6.7,0,0,1-1.921.342Q11.647-.812,9.9-.831q-1.75.019-3.519-.057a6.7,6.7,0,0,1-1.921-.342A4.238,4.238,0,0,1,2.82-2.277,4.238,4.238,0,0,1,1.774-3.913a6.7,6.7,0,0,1-.342-1.921Q1.355-7.6,1.375-9.353q-.019-1.75.057-3.519a6.7,6.7,0,0,1,.342-1.921A4.238,4.238,0,0,1,2.82-16.43a4.238,4.238,0,0,1,1.636-1.046,6.7,6.7,0,0,1,1.921-.342q1.769-.076,3.519-.057,1.75-.019,3.519.057a6.7,6.7,0,0,1,1.921.342,4.238,4.238,0,0,1,1.636,1.046,4.238,4.238,0,0,1,1.046,1.636,6.7,6.7,0,0,1,.342,1.921Q18.438-11.1,18.419-9.353Z" transform="translate(7.812 29.497)" fill="#fff"/>
  </g>
</svg>
