<svg width="40" height="41" viewBox="0 0 40 41" fill="none" xmlns="http://www.w3.org/2000/svg">
<g clip-path="url(#clip0)">
<path d="M38.0524 7.32795L31.0993 0.374824C30.9528 0.22834 30.7541 0.145996 30.5469 0.145996H8.75C8.31852 0.145996 7.96875 0.49584 7.96875 0.927246V26.1272C4.45805 26.517 1.71875 29.5018 1.71875 33.1147C1.71875 36.9918 4.87297 40.146 8.75 40.146H37.5C37.9315 40.146 38.2812 39.7962 38.2812 39.3647V7.88037C38.2812 7.67318 38.1989 7.47451 38.0524 7.32795ZM31.3281 2.81334L35.6138 7.09912H31.3281V2.81334ZM3.28125 33.1147C3.28125 30.0993 5.73453 27.646 8.75 27.646C11.7655 27.646 14.2188 30.0993 14.2188 33.1147C14.2188 36.1302 11.7655 38.5835 8.75 38.5835C5.73453 38.5835 3.28125 36.1302 3.28125 33.1147ZM13.164 38.5835C14.7592 37.2934 15.7812 35.3214 15.7812 33.1147C15.7812 29.5018 13.042 26.517 9.53125 26.1272V1.7085H29.7656V7.88037C29.7656 8.31178 30.1154 8.66162 30.5469 8.66162H36.7188V38.5835H13.164Z" fill="#171717"/>
<path d="M32.7932 26.7078H17.7402C17.3088 26.7078 16.959 27.0576 16.959 27.489C16.959 27.9204 17.3088 28.2703 17.7402 28.2703H32.7932C33.2247 28.2703 33.5745 27.9204 33.5745 27.489C33.5745 27.0576 33.2247 26.7078 32.7932 26.7078Z" fill="#EC595A"/>
<path d="M13.125 8.271H15.5326C15.9641 8.271 16.3138 7.92115 16.3138 7.48975C16.3138 7.05834 15.9641 6.7085 15.5326 6.7085H13.125C12.6935 6.7085 12.3438 7.05834 12.3438 7.48975C12.3438 7.92115 12.6935 8.271 13.125 8.271Z" fill="#EC595A"/>
<path d="M19.9072 8.271H24.7867C25.2182 8.271 25.568 7.92115 25.568 7.48975C25.568 7.05834 25.2182 6.7085 24.7867 6.7085H19.9072C19.4757 6.7085 19.126 7.05834 19.126 7.48975C19.126 7.92115 19.4757 8.271 19.9072 8.271Z" fill="#EC595A"/>
<path d="M32.7929 31.7074H20.1299C19.6984 31.7074 19.3486 32.0572 19.3486 32.4886C19.3486 32.9201 19.6984 33.2699 20.1299 33.2699H32.7929C33.2244 33.2699 33.5742 32.9201 33.5742 32.4886C33.5742 32.0572 33.2244 31.7074 32.7929 31.7074Z" fill="#EC595A"/>
<path d="M32.7933 11.7089H26.4748C26.0433 11.7089 25.6935 12.0587 25.6935 12.4901C25.6935 12.9215 26.0433 13.2714 26.4748 13.2714H32.012V21.7081H13.9062V13.2714H19.4435C19.875 13.2714 20.2248 12.9215 20.2248 12.4901C20.2248 12.0587 19.875 11.7089 19.4435 11.7089H13.125C12.6935 11.7089 12.3438 12.0587 12.3438 12.4901V22.4893C12.3438 22.9207 12.6935 23.2706 13.125 23.2706H32.7933C33.2248 23.2706 33.5745 22.9207 33.5745 22.4893V12.4901C33.5745 12.0586 33.2248 11.7089 32.7933 11.7089Z" fill="#EC595A"/>
<path d="M22.4066 11.9374C22.2605 12.0835 22.1777 12.2843 22.1777 12.4897C22.1777 12.696 22.2605 12.8968 22.4066 13.0429C22.552 13.1881 22.7535 13.2718 22.959 13.2718C23.1645 13.2718 23.366 13.1882 23.5113 13.0429C23.6566 12.8968 23.7402 12.696 23.7402 12.4897C23.7402 12.2843 23.6566 12.0835 23.5113 11.9374C23.366 11.7921 23.1645 11.7085 22.959 11.7085C22.7527 11.7085 22.5512 11.792 22.4066 11.9374Z" fill="#EC595A"/>
<path d="M10.9988 32.5994C11.3038 32.2943 11.3038 31.7997 10.9988 31.4945C10.6937 31.1895 10.199 31.1895 9.89392 31.4945L8.31096 33.0775L7.60619 32.3728C7.30111 32.0678 6.80643 32.0678 6.50127 32.3728C6.19619 32.6779 6.19619 33.1725 6.50127 33.4777L7.75853 34.735C7.90502 34.8814 8.10377 34.9638 8.31096 34.9638C8.51814 34.9638 8.71689 34.8814 8.86338 34.735L10.9988 32.5994Z" fill="#EC595A"/>
</g>
<defs>
<clipPath id="clip0">
<rect width="40" height="40" fill="white" transform="translate(0 0.145996)"/>
</clipPath>
</defs>
</svg>
