<svg xmlns="http://www.w3.org/2000/svg" width="19.517" height="13.753" viewBox="0 0 19.517 13.753">
  <g id="social-youtube" transform="translate(-7.95 -13.257)">
    <path id="Path_442" data-name="Path 442" d="M19.077-13.859a16.854,16.854,0,0,1,.352,2.929q.067,1.636.067,1.788t-.067,1.788a16.854,16.854,0,0,1-.352,2.929A2.68,2.68,0,0,1,18.44-3.33a2.3,2.3,0,0,1-1.094.637,28.059,28.059,0,0,1-4.366.352q-2.9.067-3.243.067T6.494-2.341a28.059,28.059,0,0,1-4.366-.352A2.3,2.3,0,0,1,1.034-3.33,2.68,2.68,0,0,1,.4-4.424,16.854,16.854,0,0,1,.045-7.353Q-.021-8.989-.021-9.141t.067-1.788A16.854,16.854,0,0,1,.4-13.859a2.6,2.6,0,0,1,.637-1.1,2.335,2.335,0,0,1,1.094-.628,26.125,26.125,0,0,1,4.366-.371q2.9-.067,3.243-.067t3.243.067a26.125,26.125,0,0,1,4.366.371,2.335,2.335,0,0,1,1.094.628A2.6,2.6,0,0,1,19.077-13.859ZM7.74-6.25l5.1-2.891-5.1-2.91Z" transform="translate(7.971 29.284)" fill="#fff"/>
  </g>
</svg>
