<svg width="15" height="15" viewBox="0 0 15 15" fill="none" xmlns="http://www.w3.org/2000/svg">
<path d="M10 1H5C2.79086 1 1 2.79086 1 5V10C1 12.2091 2.79086 14 5 14H10C12.2091 14 14 12.2091 14 10V5C14 2.79086 12.2091 1 10 1Z" stroke="#202020"/>
<path fill-rule="evenodd" clip-rule="evenodd" d="M10.3 7.059C10.4772 8.25388 9.86813 9.42769 8.78915 9.97077C7.71017 10.5139 6.40455 10.3038 5.5504 9.44962C4.69626 8.59547 4.48616 7.28984 5.02924 6.21086C5.57232 5.13188 6.74613 4.52282 7.94102 4.7C9.1611 4.88093 10.1191 5.83892 10.3 7.059Z" stroke="#202020" stroke-linecap="round" stroke-linejoin="round"/>
<path d="M11.35 3.64999H11.357" stroke="#202020" stroke-linecap="round" stroke-linejoin="round"/>
</svg>
