<svg width="50" height="51" viewBox="0 0 50 51" fill="none" xmlns="http://www.w3.org/2000/svg">
<path d="M1 25.1842C1 11.9517 11.7665 1.1842 25 1.1842C38.2335 1.1842 49 11.9517 49 25.1842C49 38.4167 38.2335 49.1842 25 49.1842C11.7665 49.1842 1 38.4167 1 25.1842Z" fill="white" stroke="#171717" stroke-width="2"/>
<path fill-rule="evenodd" clip-rule="evenodd" d="M19.2933 35.4737C19.4479 35.5581 19.6208 35.6009 19.7917 35.6009C19.987 35.6009 20.1844 35.5459 20.3553 35.4351L34.9386 26.0601C35.2356 25.8688 35.4167 25.5382 35.4167 25.1842C35.4167 24.8302 35.2356 24.4995 34.9386 24.3083L20.3553 14.9333C20.0358 14.7258 19.6229 14.7125 19.2933 14.8946C18.9575 15.0777 18.75 15.4277 18.75 15.8092V34.5592C18.75 34.9406 18.9575 35.2906 19.2933 35.4737ZM20.833 32.6508V17.7176L32.4481 25.1842L20.833 32.6508Z" fill="#EC595A"/>
</svg>
